<?xml version="1.0" encoding="utf-8"?>
<!-- Generator: Adobe Illustrator 27.7.0, SVG Export Plug-In . SVG Version: 6.00 Build 0)  -->
<svg version="1.1" id="Layer_1" xmlns="http://www.w3.org/2000/svg" xmlns:xlink="http://www.w3.org/1999/xlink" x="0px" y="0px"
	 viewBox="0 0 571.52 163.61" style="enable-background:new 0 0 571.52 163.61;" xml:space="preserve">
<style type="text/css">
	.st0{fill:#051E3C;}
</style>
<g>
	<g>
		<path class="st0" d="M81.07,90.22c0-21.18,17.28-38.61,38.46-38.46c13.52,0,25.99,6.16,32.75,19.38l-12.32,6.91
			c-4.36-7.96-11.72-12.17-20.43-12.17c-12.92,0-23.59,10.97-23.59,24.34c0,13.52,10.67,24.64,23.59,24.64
			c8.71,0,16.07-4.21,20.43-12.17l12.32,6.76c-6.76,13.37-19.23,19.38-32.75,19.38C98.35,129.13,81.07,111.55,81.07,90.22z"/>
		<path class="st0" d="M191.34,91.57v35.61h-14.87V90.07c0-21.48,12.77-38.31,36.51-38.31c24.04,0,37.11,16.83,37.11,38.16v37.26
			h-14.87V91.72c0-13.82-7.51-25.69-22.23-25.69C198.55,66.03,191.34,77.9,191.34,91.57z"/>
		<path class="st0" d="M275.77,90.22c0-21.18,17.28-38.61,38.46-38.46c13.52,0,25.99,6.16,32.75,19.38l-12.32,6.91
			c-4.36-7.96-11.72-12.17-20.43-12.17c-12.92,0-23.59,10.97-23.59,24.34c0,13.52,10.67,24.64,23.59,24.64
			c8.71,0,16.07-4.21,20.43-12.17l12.32,6.76c-6.76,13.37-19.23,19.38-32.75,19.38C293.04,129.13,275.77,111.55,275.77,90.22z"/>
		<path class="st0" d="M376.57,100.73V66.48H362V53.56h14.57V34.48h14.87v19.08h28.24v12.92h-28.24v33.8
			c0,9.61,5.71,15.32,14.57,15.32c4.81,0,10.07-1.8,13.67-4.36v13.67c-3.76,2.55-9.61,4.21-15.02,4.21
			C386.34,129.13,376.57,117.56,376.57,100.73z"/>
		<path class="st0" d="M447.78,127.18V83.31c0-17.88,10.22-31.25,29.45-31.25c4.66,0,9.46,0.9,13.22,2.7v14.72
			c-3.61-2.1-7.81-3.15-11.87-3.15c-9.91,0-15.92,6.76-15.92,17.58v43.27H447.78z"/>
	</g>
</g>
</svg>
