<?xml version="1.0" encoding="utf-8"?>
<!-- Generator: Adobe Illustrator 27.7.0, SVG Export Plug-In . SVG Version: 6.00 Build 0)  -->
<svg version="1.1" id="Layer_1" xmlns="http://www.w3.org/2000/svg" xmlns:xlink="http://www.w3.org/1999/xlink" x="0px" y="0px"
	 viewBox="0 0 600 600" style="enable-background:new 0 0 600 600;" xml:space="preserve">
<style type="text/css">
	.st0{fill:#051E3C;}
</style>
<g>
	<path class="st0" d="M185.26,208.47v50.16h-14.31v-51.66c0-21.48,44.77-41.22,127.99-41.22c84.28,0,130.1,19.74,130.1,41.07v37.26
		h-14.31v-36.91c0-13.82-64.17-30.05-115.79-30.05C248.38,177.11,185.26,194.8,185.26,208.47z"/>
	<path class="st0" d="M411.13,373.4c-78.91,62.19-111.01,61.09-114.17,60.8h-0.04c-2.94,0.28-30.92,1.25-98.31-48.67l11.83-7.9
		c20.5,14.13,51.41,32.57,86.51,44.02c42.04-9.63,82.96-39.4,101.8-54.63L411.13,373.4z"/>
	<g>
		<path class="st0" d="M95.31,311.42c0-21.18,17.28-38.61,38.46-38.46c13.52,0,25.99,6.16,32.75,19.38l-12.32,6.91
			c-4.36-7.96-11.72-12.17-20.43-12.17c-12.92,0-23.59,10.97-23.59,24.34c0,13.52,10.67,24.64,23.59,24.64
			c8.71,0,16.07-4.21,20.43-12.17l12.32,6.76c-6.76,13.37-19.23,19.38-32.75,19.38C112.59,350.33,95.31,332.75,95.31,311.42z"/>
		<path class="st0" d="M205.58,312.77v35.61h-14.87v-37.11c0-21.48,12.77-38.31,36.51-38.31c24.04,0,37.11,16.83,37.11,38.16v37.26
			h-14.87v-35.45c0-13.82-7.51-25.69-22.23-25.69C212.79,287.23,205.58,299.1,205.58,312.77z"/>
		<path class="st0" d="M290.01,311.42c0-21.18,17.28-38.61,38.46-38.46c13.52,0,25.99,6.16,32.75,19.38l-12.32,6.91
			c-4.36-7.96-11.72-12.17-20.43-12.17c-12.92,0-23.59,10.97-23.59,24.34c0,13.52,10.67,24.64,23.59,24.64
			c8.71,0,16.07-4.21,20.43-12.17l12.32,6.76c-6.76,13.37-19.23,19.38-32.75,19.38C307.28,350.33,290.01,332.75,290.01,311.42z"/>
		<path class="st0" d="M390.81,321.94v-34.25h-14.57v-12.92h14.57v-19.08h14.87v19.08h28.24v12.92h-28.24v33.8
			c0,9.61,5.71,15.32,14.57,15.32c4.81,0,10.07-1.8,13.67-4.36v13.67c-3.76,2.55-9.61,4.21-15.02,4.21
			C400.58,350.33,390.81,338.76,390.81,321.94z"/>
		<path class="st0" d="M462.02,348.38v-43.87c0-17.88,10.22-31.25,29.45-31.25c4.66,0,9.46,0.9,13.22,2.7v14.72
			c-3.61-2.1-7.81-3.15-11.87-3.15c-9.91,0-15.92,6.76-15.92,17.58v43.27H462.02z"/>
	</g>
</g>
</svg>
