<?xml version="1.0" encoding="utf-8"?>
<!-- Generator: Adobe Illustrator 27.7.0, SVG Export Plug-In . SVG Version: 6.00 Build 0)  -->
<svg version="1.1" id="Layer_1" xmlns="http://www.w3.org/2000/svg" xmlns:xlink="http://www.w3.org/1999/xlink" x="0px" y="0px"
	 viewBox="0 0 420 55.14" style="enable-background:new 0 0 420 55.14;" xml:space="preserve">
<style type="text/css">
	.st0{fill:#E5E5E5;}
	.st1{fill:#FFDE17;}
	.st2{fill:none;stroke:#000000;stroke-miterlimit:10;}
	.st3{fill:#FFFFFF;}
	.st4{fill:#FFFFFF;stroke:#000000;stroke-width:0.7663;stroke-miterlimit:10;}
	.st5{fill:#FED607;}
	.st6{fill:#051E3C;}
	.st7{fill:#FAF189;}
	.st8{fill:none;stroke:#000000;stroke-width:0.6893;stroke-miterlimit:10;}
</style>
<path class="st0" d="M-565.66-704.69v22.73h-4.89v128.34h-167.59v-118.84h-4.89v-32.13c0-3.42,1.65-6.77,4.89-9.9
	c4.54-4.39,12.21-8.35,22.87-11.48c14.6-4.27,34.79-6.95,60.2-6.95c27.8,0,49.5,3.12,64.56,8c9.15,2.95,15.84,6.55,19.96,10.49
	C-567.31-711.34-565.66-708.04-565.66-704.69z"/>
<path class="st0" d="M-201.25-457.8l-19.13-75.77v-26.81c0-2.85,1.06-5.65,3.15-8.26c2.92-3.66,7.86-6.97,14.73-9.58
	c9.4-3.56,38.38-5.8,54.76-5.8c17.91,0,47.86,2.6,57.56,6.68c5.89,2.46,10.21,5.47,12.86,8.75c2.09,2.58,3.15,5.33,3.15,8.13v18.97
	l-19.12,78.85c-28.87,21.54-45.32,26.95-52.7,28.25h-9.2L-201.25-457.8z"/>
<path class="st0" d="M716.77-288.8l-19.13-75.77v-26.81c0-2.85,1.06-5.65,3.15-8.26c2.92-3.66,7.86-6.97,14.73-9.58
	c9.4-3.56,38.38-5.8,54.76-5.8c17.91,0,47.86,2.6,57.56,6.68c5.89,2.46,10.21,5.47,12.86,8.75c2.09,2.58,3.15,5.33,3.15,8.13v18.97
	l-19.12,78.85c-28.87,21.54-45.32,26.95-52.7,28.25h-9.2L716.77-288.8z"/>
<path d="M-134.05,173.92h-220.49c-9.15,0-16.57-7.42-16.57-16.57v-9.54c0-9.15,7.42-16.57,16.57-16.57h220.49
	c9.15,0,16.57,7.42,16.57,16.57v9.54C-117.48,166.5-124.9,173.92-134.05,173.92z"/>
<rect x="116.54" y="-491.03" class="st1" width="367.28" height="16.81"/>
<path class="st2" d="M371.88-432.35c-0.79,0.66-1.79,1.2-2.99,1.63c-1.21,0.43-2.45,0.64-3.72,0.64c-2.1,0-3.57-0.56-4.41-1.7
	c-0.85-1.14-1.27-2.82-1.27-5.06v-26.27c0-3.48-0.45-6-1.34-7.57c-0.9-1.56-2.6-2.35-5.11-2.35c-1.72,0-3.59,0.42-5.6,1.24
	c-2.02,0.83-3.92,2.01-5.71,3.54c-0.59,0.5-1.14,1.03-1.65,1.59v35.91c-0.69,0.14-1.49,0.24-2.42,0.31
	c-0.93,0.07-1.88,0.11-2.84,0.11c-0.97,0-1.91-0.04-2.84-0.11c-0.93-0.07-1.78-0.17-2.53-0.31v-50.74l0.67-0.67h3.97
	c2.24,0,3.8,0.67,4.68,2.01c0.72,1.1,1.14,2.56,1.27,4.37c1.72-1.53,3.67-2.89,5.82-4.08c3.34-1.85,6.87-2.77,10.59-2.77
	c3.23,0,5.85,0.75,7.84,2.25c2,1.5,3.47,3.52,4.42,6.06c0.94,2.55,1.42,5.42,1.42,8.63v24.05c0,1.79,0.12,3.49,0.38,5.09
	C370.77-434.95,371.23-433.55,371.88-432.35z"/>
<path class="st2" d="M413.29-513.5c-1.55-3.32-3.85-5.96-6.89-7.92c-3.05-1.96-6.81-2.94-11.28-2.94c-4.75,0-8.73,1.17-11.93,3.51
	c-3.2,2.34-5.6,5.54-7.2,9.6c-1.6,4.06-2.4,8.66-2.4,13.78c0,3.48,0.35,6.82,1.06,10.02c0.7,3.2,1.86,6.06,3.46,8.59
	c1.6,2.53,3.77,4.52,6.5,5.96c2.74,1.45,6.15,2.17,10.25,2.17c3.61,0,7.13-0.52,10.55-1.57c3.43-1.05,6.36-2.47,8.81-4.26
	c-0.14-1.1-0.51-2.3-1.11-3.59c-0.61-1.29-1.35-2.36-2.25-3.23c-2.17,1.14-4.46,2.08-6.87,2.82c-2.4,0.74-4.9,1.11-7.48,1.11
	c-3.17,0-5.61-0.75-7.33-2.25c-1.72-1.49-2.92-3.54-3.59-6.14c-0.5-1.93-0.81-4.04-0.94-6.32h30.19c0.27-1.45,0.47-2.77,0.59-3.95
	c0.12-1.19,0.18-2.61,0.18-4.26C415.61-506.47,414.84-510.17,413.29-513.5z M405.34-501.91h-20.7c0.2-4.22,1.06-7.61,2.58-10.17
	c1.75-2.96,4.39-4.44,7.9-4.44c2.47,0,4.46,0.61,5.96,1.81c1.5,1.21,2.58,2.81,3.25,4.83c0.67,2.01,1.01,4.22,1.01,6.63V-501.91z"/>
<path class="st2" d="M469.5-425.92c0.1-2.24-0.09-4.33-0.59-6.27c-0.5-1.94-1.41-3.53-2.74-4.75c-1.33-1.22-3.24-1.83-5.76-1.83
	c-3.27,0-5.81,1.57-7.61,4.72s-2.71,7.89-2.71,14.22c0,6.19,1.02,10.71,3.07,13.55c2.05,2.84,4.91,4.26,8.59,4.26
	c2.34,0,4.57-0.53,6.69-1.6c2.12-1.07,4.07-2.29,5.86-3.67c0.93,0.59,1.85,1.51,2.76,2.76c0.91,1.26,1.49,2.47,1.73,3.64
	c-2.34,2.27-5.11,4.1-8.31,5.5c-3.2,1.39-6.66,2.09-10.38,2.09c-3.68,0-6.85-0.71-9.5-2.12s-4.83-3.35-6.53-5.81
	c-1.7-2.46-2.97-5.29-3.79-8.49c-0.83-3.2-1.24-6.57-1.24-10.12c0-4.78,0.6-8.89,1.81-12.31c1.2-3.42,2.84-6.23,4.9-8.41
	c2.07-2.19,4.38-3.79,6.94-4.83s5.22-1.55,7.98-1.55c3.13,0,5.87,0.46,8.21,1.39c2.34,0.93,4.29,2.16,5.86,3.69
	c1.57,1.53,2.73,3.21,3.48,5.03c0.76,1.82,1.14,3.63,1.14,5.42c0,1.82-0.43,3.27-1.29,4.34c-0.86,1.07-2.24,1.6-4.13,1.6
	c-0.86,0-1.63-0.03-2.32-0.1C470.92-425.62,470.22-425.74,469.5-425.92z"/>
<path class="st2" d="M518.92-396.68v30.87c0,1.38,0.32,2.47,0.98,3.28c0.65,0.81,1.75,1.21,3.3,1.21h7.13
	c0.55,1.62,0.82,3.41,0.82,5.37c0,0.38-0.01,0.78-0.02,1.19c-0.02,0.41-0.08,0.79-0.18,1.14c-1.72,0.2-3.57,0.38-5.53,0.54
	c-1.96,0.15-3.96,0.23-5.99,0.23c-3.51,0-6.21-0.89-8.1-2.66c-1.89-1.77-2.84-4.43-2.84-7.97v-33.15l-7.59,0.11
	c-0.27-1.27-0.41-2.6-0.41-3.98c0-1.24,0.14-2.53,0.41-3.87l7.59,0.11v-9.04c0-2.37,0.4-4.1,1.19-5.19c0.79-1.08,2.3-1.62,4.54-1.62
	h4.03l0.67,0.72v15.18l12.75-0.16c0.34,1.28,0.52,2.57,0.52,3.87c0,1.45-0.18,2.77-0.52,3.98L518.92-396.68z"/>
<path class="st2" d="M579.87-378.3c0,1.45-0.21,3.13-0.62,5.04c-0.41,1.91-1.08,3.58-2.01,5.03c-0.66-0.17-1.34-0.28-2.07-0.34
	c-0.72-0.05-1.43-0.09-2.11-0.13c-1.97,0-3.68,0.41-5.14,1.22s-2.7,1.86-3.72,3.15c-0.85,1.09-1.6,2.26-2.24,3.54v33.6
	c-0.72,0.14-1.55,0.24-2.48,0.31s-1.88,0.1-2.84,0.1c-0.96,0-1.91-0.03-2.84-0.1s-1.75-0.17-2.48-0.31v-35.41
	c0-2.76-0.41-5.01-1.24-6.77c-0.82-1.75-1.68-3.04-2.58-3.87c0.24-0.93,0.74-1.97,1.5-3.12c0.76-1.15,1.55-2.01,2.38-2.56
	c3.44,0.76,6,2.49,7.69,5.19c0.75,1.21,1.36,2.56,1.81,4.05c0.34-0.73,0.7-1.45,1.1-2.14c1.22-2.12,2.86-3.82,4.91-5.11
	c2.04-1.29,4.53-1.93,7.46-1.93c0.93,0,1.83,0.04,2.71,0.12C577.93-378.65,578.87-378.5,579.87-378.3z"/>
<path d="M-314.62,284.71c0-10.1,7.24-18.34,17.77-18.34c10.6,0,17.2,7.67,17.2,17.48v2.87h-28.09c0.79,6.02,5.37,10.25,11.68,10.25
	c4.3,0,8.17-1.86,10.25-5.73l5.45,2.79c-3.08,6.02-8.74,9.24-15.62,9.24C-306.66,303.27-314.62,295.53-314.62,284.71z
	 M-286.74,282.13c-0.29-5.59-4.37-9.39-10.18-9.39c-5.95,0-9.82,4.16-10.53,9.39H-286.74z"/>
<path d="M-260.52,284.86c0-10.1,8.24-18.42,18.34-18.34c6.45,0,12.4,2.94,15.62,9.24l-5.88,3.3c-2.08-3.8-5.59-5.8-9.74-5.8
	c-6.16,0-11.25,5.23-11.25,11.61c0,6.45,5.09,11.75,11.25,11.75c4.16,0,7.67-2.01,9.74-5.8l5.88,3.22
	c-3.22,6.38-9.17,9.24-15.62,9.24C-252.28,303.41-260.52,295.03-260.52,284.86z"/>
<path d="M-203.84,289.87v-16.34h-6.95v-6.16h6.95v-9.1h7.09v9.1h13.47v6.16h-13.47v16.12c0,4.59,2.72,7.31,6.95,7.31
	c2.29,0,4.8-0.86,6.52-2.08v6.52c-1.79,1.22-4.59,2.01-7.17,2.01C-199.18,303.41-203.84,297.9-203.84,289.87z"/>
<path d="M-161.27,302.48v-20.92c0-8.53,4.87-14.9,14.04-14.9c2.22,0,4.51,0.43,6.31,1.29v7.02c-1.72-1-3.73-1.5-5.66-1.5
	c-4.73,0-7.6,3.22-7.6,8.38v20.64H-161.27z"/>
<g>
	<g>
		<path d="M632.74-510.85c2.24,0,3.79,0.67,4.67,2.01c0.88,1.34,1.32,3.2,1.32,5.58v43.83c-0.69,0.14-1.5,0.24-2.43,0.31
			c-0.93,0.07-1.88,0.1-2.84,0.1s-1.91-0.03-2.84-0.1c-0.93-0.07-1.77-0.17-2.53-0.31v-50.74l0.67-0.67H632.74z M668.78-470.33
			c0,1.79,0.13,3.48,0.39,5.08c0.26,1.6,0.71,3,1.37,4.21c-0.79,0.65-1.79,1.2-2.99,1.63c-1.21,0.43-2.44,0.65-3.72,0.65
			c-2.1,0-3.57-0.57-4.41-1.7c-0.84-1.14-1.27-2.82-1.27-5.06v-26.28c0-3.48-0.45-6-1.34-7.56c-0.9-1.57-2.6-2.35-5.11-2.35
			c-1.72,0-3.59,0.41-5.6,1.24c-2.01,0.83-3.92,2.01-5.7,3.54c-1.79,1.53-3.24,3.31-4.34,5.34v-10.22c2.31-2.65,5.13-4.9,8.47-6.74
			c3.34-1.84,6.87-2.76,10.58-2.76c3.23,0,5.85,0.75,7.85,2.25s3.47,3.52,4.41,6.07c0.95,2.55,1.42,5.42,1.42,8.62V-470.33z"/>
		<path d="M706.2-481.53v-7.74h25.04v-1.34c0-2.41-0.34-4.62-1.01-6.63s-1.75-3.62-3.25-4.83c-1.5-1.2-3.48-1.81-5.96-1.81
			c-3.51,0-6.14,1.48-7.9,4.44c-1.75,2.96-2.63,7.04-2.63,12.23v3.25c0,3.24,0.33,6.15,1.01,8.75c0.67,2.6,1.87,4.65,3.59,6.14
			s4.16,2.25,7.33,2.25c2.58,0,5.08-0.37,7.48-1.11c2.41-0.74,4.7-1.68,6.87-2.81c0.89,0.86,1.64,1.94,2.25,3.23
			c0.6,1.29,0.97,2.49,1.11,3.59c-2.44,1.79-5.38,3.21-8.8,4.26c-3.42,1.05-6.94,1.57-10.56,1.57c-4.1,0-7.51-0.72-10.25-2.17
			c-2.74-1.45-4.9-3.43-6.5-5.96s-2.75-5.39-3.46-8.6c-0.71-3.2-1.06-6.54-1.06-10.01c0-5.13,0.8-9.72,2.4-13.78
			c1.6-4.06,4-7.26,7.2-9.6c3.2-2.34,7.17-3.51,11.92-3.51c4.47,0,8.23,0.98,11.28,2.94c3.05,1.96,5.34,4.6,6.89,7.92
			c1.55,3.32,2.32,7.03,2.32,11.12c0,1.65-0.06,3.07-0.18,4.26c-0.12,1.19-0.32,2.5-0.59,3.95H706.2z"/>
		<path d="M800.2-490.72c0.1-2.24-0.09-4.33-0.59-6.27c-0.5-1.94-1.41-3.53-2.74-4.75c-1.33-1.22-3.24-1.83-5.76-1.83
			c-3.27,0-5.81,1.57-7.61,4.72s-2.71,7.89-2.71,14.22c0,6.19,1.02,10.71,3.07,13.55c2.05,2.84,4.91,4.26,8.59,4.26
			c2.34,0,4.57-0.53,6.69-1.6c2.12-1.07,4.07-2.29,5.86-3.67c0.93,0.59,1.85,1.51,2.76,2.76c0.91,1.26,1.49,2.47,1.73,3.64
			c-2.34,2.27-5.11,4.1-8.31,5.5c-3.2,1.39-6.66,2.09-10.38,2.09c-3.68,0-6.85-0.71-9.5-2.12s-4.83-3.35-6.53-5.81
			c-1.7-2.46-2.97-5.29-3.79-8.49c-0.83-3.2-1.24-6.57-1.24-10.12c0-4.78,0.6-8.89,1.81-12.31c1.2-3.42,2.84-6.23,4.9-8.41
			c2.07-2.19,4.38-3.79,6.94-4.83s5.22-1.55,7.98-1.55c3.13,0,5.87,0.46,8.21,1.39c2.34,0.93,4.29,2.16,5.86,3.69
			c1.57,1.53,2.73,3.21,3.48,5.03c0.76,1.82,1.14,3.63,1.14,5.42c0,1.82-0.43,3.27-1.29,4.34c-0.86,1.07-2.24,1.6-4.13,1.6
			c-0.86,0-1.63-0.03-2.32-0.1C801.63-490.43,800.92-490.55,800.2-490.72z"/>
		<path d="M865.6-510.49c0.34,1.27,0.52,2.56,0.52,3.87c0,1.45-0.17,2.77-0.52,3.97l-16.88-0.21l-13.89,0.21
			c-0.28-1.27-0.41-2.6-0.41-3.97c0-1.24,0.14-2.53,0.41-3.87l14.04,0.21L865.6-510.49z M842.43-519.42c0-2.37,0.4-4.1,1.19-5.19
			c0.79-1.08,2.3-1.63,4.54-1.63h4.03l0.67,0.72v53.58c0,1.38,0.33,2.47,0.98,3.28c0.65,0.81,1.75,1.21,3.3,1.21h7.12
			c0.55,1.62,0.83,3.41,0.83,5.37c0,0.38-0.01,0.77-0.03,1.19c-0.02,0.41-0.08,0.79-0.18,1.14c-1.72,0.21-3.56,0.39-5.52,0.54
			s-3.96,0.23-5.99,0.23c-3.51,0-6.21-0.89-8.1-2.66c-1.89-1.77-2.84-4.43-2.84-7.98V-519.42z"/>
		<path d="M892.39-505.48c0.24-0.93,0.74-1.97,1.5-3.12c0.76-1.15,1.55-2,2.38-2.56c3.44,0.76,6,2.49,7.69,5.19
			c1.69,2.7,2.65,6.1,2.89,10.2v36.34c-0.72,0.14-1.55,0.24-2.48,0.31c-0.93,0.07-1.88,0.1-2.84,0.1c-0.96,0-1.91-0.03-2.84-0.1
			c-0.93-0.07-1.75-0.17-2.48-0.31v-35.41c0-2.75-0.41-5.01-1.24-6.76C894.15-503.37,893.29-504.66,892.39-505.48z M924.76-510.54
			c0,1.45-0.21,3.12-0.62,5.03c-0.41,1.91-1.08,3.59-2.01,5.03c-0.65-0.17-1.34-0.28-2.06-0.34c-0.72-0.05-1.43-0.09-2.12-0.13
			c-1.96,0-3.67,0.4-5.14,1.21c-1.46,0.81-2.7,1.86-3.72,3.15c-1.02,1.29-1.88,2.71-2.61,4.26c-0.72,1.55-1.31,3.06-1.75,4.54
			l-1.55-1.96c0.07-2.44,0.39-4.91,0.98-7.41c0.58-2.49,1.49-4.8,2.71-6.92c1.22-2.12,2.86-3.82,4.9-5.11
			c2.05-1.29,4.53-1.94,7.46-1.94c0.93,0,1.83,0.04,2.71,0.13C922.83-510.9,923.76-510.75,924.76-510.54z"/>
	</g>
</g>
<polygon points="-68.76,-533 -68.76,-459.2 276.97,-459.2 276.97,-706 "/>
<path class="st3" d="M361.72-803.55c0.01,1.11-0.36,2.08-1.01,2.95c-0.52,0.69-1.18,1.21-1.97,1.57c-0.06,0.03-0.12,0.15-0.12,0.23
	c0.01,1.77,0.02,3.53,0.03,5.3c0,0.42-0.06,0.83-0.36,1.16c-0.3,0.33-0.63,0.59-1.11,0.62c-0.43,0.03-0.84,0.09-1.26-0.06
	c-0.6-0.21-1.12-0.76-1.12-1.47c-0.01-1.55,0-3.1-0.01-4.65c0-0.3-0.01-0.59-0.04-0.89c-0.01-0.07-0.08-0.17-0.15-0.2
	c-1.03-0.4-1.82-1.09-2.38-2.03c-0.25-0.42-0.42-0.9-0.61-1.36c-0.03-0.07,0-0.16-0.01-0.23c-0.12-0.59-0.1-1.19-0.04-1.78
	c0.08-0.72,0.37-1.37,0.78-1.96c0.47-0.69,1.08-1.26,1.83-1.64c0.48-0.24,0.97-0.44,1.53-0.49c0.75-0.07,1.5-0.08,2.23,0.08
	c0.54,0.12,1.07,0.4,1.55,0.69c1.1,0.69,1.79,1.71,2.11,2.96C361.67-804.36,361.67-803.95,361.72-803.55z"/>
<text transform="matrix(1 0 0 1 -460.86 11.3585)" style="font-family:'Chillax-Medium'; font-size:103.2423px; letter-spacing:18;">nectr</text>
<path d="M-10.23-387.41h-220.49c-9.15,0-16.57-7.42-16.57-16.57v-9.54c0-9.15,7.42-16.57,16.57-16.57h220.49
	c9.15,0,16.57,7.42,16.57,16.57v9.54C6.34-394.82-1.08-387.41-10.23-387.41z"/>
<g>
	<g>
		<path class="st3" d="M-168.3-397.55c0.25,0.97,0.95,1.55,2.14,1.55c1.32,0,1.84-0.59,1.84-1.41c0-0.84-0.38-1.25-2.06-1.65
			c-2.18-0.53-2.67-1.19-2.67-2.26c0-1.12,0.84-2.19,2.77-2.19c1.93,0,2.79,1.15,2.91,2.28h-1.05c-0.13-0.6-0.6-1.39-1.91-1.39
			c-1.27,0-1.65,0.62-1.65,1.21c0,0.68,0.36,1.01,1.9,1.38c2.34,0.56,2.87,1.33,2.87,2.54c0,1.44-1.16,2.4-2.99,2.4
			c-1.95,0-2.97-1-3.19-2.45H-168.3z"/>
		<path class="st3" d="M-154.29-396.93c0,0.72,0.06,1.39,0.11,1.63h-1.03c-0.06-0.19-0.11-0.55-0.14-1.15
			c-0.28,0.57-0.95,1.34-2.57,1.34c-1.88,0-2.69-1.22-2.69-2.43c0-1.78,1.39-2.59,3.79-2.59c0.62,0,1.14,0,1.46,0v-0.76
			c0-0.76-0.23-1.74-1.92-1.74c-1.5,0-1.73,0.77-1.89,1.41h-1.05c0.1-0.99,0.71-2.31,2.97-2.31c1.89,0,2.95,0.79,2.95,2.58V-396.93z
			 M-155.34-399.31c-0.28,0-0.96,0-1.45,0c-1.7,0-2.7,0.46-2.7,1.72c0,0.93,0.65,1.59,1.72,1.59c2.13,0,2.43-1.43,2.43-3.04V-399.31
			z"/>
		<path class="st3" d="M-150.26-395.29v-7.11h-1.34v-0.93h1.34v-1.06c0-1.41,0.47-2.81,2.26-2.81c0.27,0,0.64,0.04,0.83,0.11v0.96
			c-0.22-0.06-0.56-0.09-0.79-0.09c-0.89,0-1.23,0.59-1.23,1.89v1h1.69v0.93h-1.69v7.11H-150.26z"/>
		<path class="st3" d="M-144.5-399.15c0.01,1.87,0.96,3.1,2.42,3.1c1.4,0,1.87-0.76,2.14-1.39h1.08c-0.33,1.05-1.18,2.33-3.27,2.33
			c-2.48,0-3.47-2.08-3.47-4.14c0-2.34,1.17-4.29,3.56-4.29c2.53,0,3.35,2.11,3.35,3.72c0,0.23,0,0.45-0.02,0.66H-144.5z
			 M-139.77-399.98c-0.02-1.47-0.79-2.64-2.28-2.64c-1.55,0-2.24,1.08-2.4,2.64H-139.77z"/>
		<path class="st3" d="M-120.53-402.42l-2.81,4.25c-1.34,2.03-2.3,3.04-4.21,3.04c-1.94,0-3.01-1.47-3.01-2.88
			c0-1.4,0.71-2.42,3-3.64c1.54-0.93,2.23-1.41,2.23-2.44c0-0.83-0.52-1.62-1.52-1.62c-0.94,0-1.59,0.59-1.59,1.68
			c0,0.71,0.51,1.35,1.4,2.21l6.65,6.54h-1.52l-6-5.92c-0.97-0.93-1.58-1.68-1.58-2.8c0-1.34,0.92-2.6,2.66-2.6
			c1.53,0,2.54,1.12,2.54,2.5c0,1.15-0.68,1.88-2.66,3.05c-2.1,1.15-2.49,1.93-2.49,2.94c0,1.07,0.9,2,1.93,2
			c1.27,0,2.06-0.47,3.48-2.69l2.3-3.61H-120.53z"/>
		<path class="st3" d="M-105.68-397.7c-0.37,1.4-1.3,2.6-3.21,2.6c-2.1,0-3.51-1.54-3.51-4.17c0-2.24,1.23-4.25,3.6-4.25
			c2.17,0,2.99,1.54,3.11,2.62h-1.07c-0.22-0.88-0.79-1.68-2.06-1.68c-1.58,0-2.47,1.34-2.47,3.27c0,1.88,0.85,3.28,2.4,3.28
			c1.1,0,1.75-0.57,2.13-1.66H-105.68z"/>
		<path class="st3" d="M-95.92-399.33c0,2.27-1.28,4.23-3.7,4.23c-2.23,0-3.6-1.78-3.6-4.21c0-2.33,1.31-4.22,3.69-4.22
			C-97.36-403.53-95.92-401.85-95.92-399.33z M-102.11-399.31c0,1.84,0.96,3.27,2.55,3.27c1.62,0,2.53-1.33,2.53-3.27
			c0-1.86-0.9-3.27-2.56-3.27C-101.28-402.58-102.11-401.2-102.11-399.31z"/>
		<path class="st3" d="M-92.74-401.31c0-0.7,0-1.39-0.02-2.03h1.04c0.03,0.25,0.05,1.2,0.04,1.43c0.34-0.76,1-1.62,2.61-1.62
			c1.47,0,2.69,0.86,2.69,3.04v5.19h-1.07v-5.04c0-1.33-0.54-2.21-1.86-2.21c-1.73,0-2.37,1.39-2.37,3.08v4.17h-1.07V-401.31z"/>
		<path class="st3" d="M-82.58-401.31c0-0.7,0-1.39-0.02-2.03h1.04c0.03,0.25,0.05,1.2,0.04,1.43c0.34-0.76,1-1.62,2.61-1.62
			c1.47,0,2.69,0.86,2.69,3.04v5.19h-1.07v-5.04c0-1.33-0.54-2.21-1.86-2.21c-1.73,0-2.37,1.39-2.37,3.08v4.17h-1.07V-401.31z"/>
		<path class="st3" d="M-71.94-399.15c0.01,1.87,0.96,3.1,2.42,3.1c1.4,0,1.87-0.76,2.14-1.39h1.08c-0.33,1.05-1.18,2.33-3.26,2.33
			c-2.48,0-3.47-2.08-3.47-4.14c0-2.34,1.17-4.29,3.56-4.29c2.53,0,3.35,2.11,3.35,3.72c0,0.23,0,0.45-0.02,0.66H-71.94z
			 M-67.22-399.98c-0.02-1.47-0.79-2.64-2.28-2.64c-1.55,0-2.24,1.08-2.4,2.64H-67.22z"/>
		<path class="st3" d="M-56.85-397.7c-0.37,1.4-1.3,2.6-3.21,2.6c-2.1,0-3.51-1.54-3.51-4.17c0-2.24,1.22-4.25,3.6-4.25
			c2.17,0,2.99,1.54,3.11,2.62h-1.07c-0.22-0.88-0.79-1.68-2.06-1.68c-1.58,0-2.47,1.34-2.47,3.27c0,1.88,0.85,3.28,2.4,3.28
			c1.1,0,1.75-0.57,2.13-1.66H-56.85z"/>
		<path class="st3" d="M-54.92-403.33h1.45v-2.45h1.07v2.45h1.85v0.93h-1.85v4.99c0,0.85,0.19,1.31,0.94,1.31
			c0.22,0,0.53-0.01,0.77-0.08v0.86c-0.3,0.12-0.73,0.15-1.09,0.15c-1.13,0-1.7-0.58-1.7-1.88v-5.34h-1.45V-403.33z"/>
		<path class="st3" d="M-47.21-399.15c0.01,1.87,0.96,3.1,2.42,3.1c1.4,0,1.87-0.76,2.14-1.39h1.08c-0.33,1.05-1.18,2.33-3.26,2.33
			c-2.48,0-3.47-2.08-3.47-4.14c0-2.34,1.17-4.29,3.56-4.29c2.53,0,3.34,2.11,3.34,3.72c0,0.23,0,0.45-0.02,0.66H-47.21z
			 M-42.49-399.98c-0.02-1.47-0.79-2.64-2.28-2.64c-1.55,0-2.24,1.08-2.4,2.64H-42.49z"/>
		<path class="st3" d="M-31.8-407.05v9.46c0,0.76,0,1.5,0.02,2.3h-1.03c-0.03-0.2-0.06-0.89-0.06-1.25
			c-0.4,0.92-1.26,1.45-2.62,1.45c-2.08,0-3.34-1.69-3.34-4.12c0-2.48,1.37-4.3,3.57-4.3c1.52,0,2.16,0.64,2.39,1.12v-4.65H-31.8z
			 M-37.72-399.26c0,2.08,1.04,3.21,2.37,3.21c2.01,0,2.51-1.43,2.51-3.42c0-1.94-0.44-3.11-2.39-3.11
			C-36.73-402.58-37.72-401.37-37.72-399.26z"/>
	</g>
</g>
<path class="st3" d="M-384.28,106.47c0.01,1.11-0.36,2.08-1.01,2.95c-0.52,0.69-1.18,1.21-1.97,1.57c-0.06,0.03-0.12,0.15-0.12,0.23
	c0.01,1.77,0.02,3.53,0.03,5.3c0,0.42-0.06,0.83-0.36,1.16c-0.3,0.33-0.63,0.59-1.11,0.62c-0.43,0.03-0.84,0.09-1.26-0.06
	c-0.6-0.21-1.12-0.76-1.12-1.47c-0.01-1.55,0-3.1-0.01-4.65c0-0.3-0.01-0.59-0.04-0.89c-0.01-0.07-0.08-0.17-0.15-0.2
	c-1.03-0.4-1.82-1.09-2.38-2.03c-0.25-0.42-0.42-0.9-0.61-1.36c-0.03-0.07,0-0.16-0.01-0.23c-0.12-0.59-0.1-1.19-0.04-1.78
	c0.08-0.72,0.37-1.37,0.78-1.96c0.47-0.69,1.08-1.26,1.83-1.64c0.48-0.24,0.97-0.44,1.53-0.49c0.75-0.07,1.5-0.08,2.23,0.08
	c0.54,0.12,1.07,0.4,1.55,0.69c1.1,0.69,1.79,1.71,2.11,2.96C-384.32,105.66-384.33,106.07-384.28,106.47z"/>
<path d="M-486.58-283.55v16.98h-7.09v-17.7c0-10.25,6.09-18.27,17.41-18.27c11.47,0,17.7,8.03,17.7,18.2v17.77h-7.09v-16.91
	c0-6.59-3.58-12.25-10.61-12.25C-483.14-295.73-486.58-290.07-486.58-283.55z"/>
<path d="M-455.19-284.66c0-10.1,7.24-18.34,17.77-18.34c10.6,0,17.2,7.67,17.2,17.48v2.87h-28.09c0.79,6.02,5.37,10.25,11.68,10.25
	c4.3,0,8.17-1.86,10.25-5.73l5.45,2.79c-3.08,6.02-8.74,9.24-15.62,9.24C-447.24-266.1-455.19-273.84-455.19-284.66z
	 M-427.32-287.24c-0.29-5.59-4.37-9.39-10.18-9.39c-5.95,0-9.82,4.16-10.53,9.39H-427.32z"/>
<path d="M-454.19-243.17c0-10.1,8.24-18.42,18.34-18.34c6.45,0,12.4,2.94,15.62,9.24l-5.88,3.3c-2.08-3.8-5.59-5.8-9.74-5.8
	c-6.16,0-11.25,5.23-11.25,11.61c0,6.45,5.09,11.75,11.25,11.75c4.16,0,7.67-2.01,9.74-5.8l5.88,3.22
	c-3.22,6.38-9.17,9.24-15.62,9.24C-445.95-224.61-454.19-232.99-454.19-243.17z"/>
<path d="M-409.91-278.21v-16.34h-6.95v-6.16h6.95v-9.1h7.09v9.1h13.47v6.16h-13.47v16.12c0,4.59,2.72,7.31,6.95,7.31
	c2.29,0,4.8-0.86,6.52-2.08v6.52c-1.79,1.22-4.59,2.01-7.17,2.01C-405.25-264.66-409.91-270.18-409.91-278.21z"/>
<path d="M-413.27-225.22v-20.92c0-8.53,4.87-14.9,14.04-14.9c2.22,0,4.51,0.43,6.31,1.29v7.02c-1.72-1-3.73-1.5-5.66-1.5
	c-4.73,0-7.6,3.22-7.6,8.38v20.64H-413.27z"/>
<path d="M-468.56-229.96h-15.11c-7.38,0-13.37-5.99-13.37-13.37v-5.96c0-7.38,5.99-13.37,13.37-13.37h15.11
	c7.38,0,13.37,5.99,13.37,13.37v5.96C-455.19-235.94-461.18-229.96-468.56-229.96z"/>
<path class="st4" d="M-472.21-248.94c0.01,0.85-0.27,1.6-0.77,2.26c-0.4,0.53-0.91,0.93-1.51,1.2c-0.05,0.02-0.09,0.12-0.09,0.18
	c0,1.35,0.02,2.71,0.02,4.06c0,0.32-0.05,0.64-0.28,0.89c-0.23,0.25-0.48,0.45-0.85,0.48c-0.33,0.02-0.65,0.07-0.96-0.04
	c-0.46-0.16-0.86-0.58-0.86-1.13c0-1.19,0-2.37-0.01-3.56c0-0.23-0.01-0.46-0.03-0.68c-0.01-0.06-0.06-0.13-0.11-0.15
	c-0.79-0.31-1.39-0.83-1.82-1.55c-0.19-0.33-0.32-0.69-0.47-1.04c-0.02-0.05,0-0.12-0.01-0.18c-0.09-0.45-0.08-0.91-0.03-1.37
	c0.06-0.55,0.29-1.05,0.6-1.5c0.36-0.53,0.83-0.97,1.4-1.26c0.36-0.19,0.75-0.34,1.17-0.38c0.58-0.05,1.15-0.06,1.71,0.06
	c0.41,0.09,0.82,0.3,1.18,0.53c0.85,0.53,1.37,1.31,1.62,2.27C-472.24-249.57-472.24-249.25-472.21-248.94z"/>
<path d="M598.48-361.82c0.51-0.43,25.14,20.63,27.74,22.5c10.51,7.55,21.99,11.13,33.35,16.84c16.06,8.07,26.8,11.58,44.65,5.41
	c25.18-8.7,48.21-23.57,66.5-42.94c-0.83-3.11-4.68-4.56-7.83-3.87c-3.14,0.69-5.7,2.89-8.1,5.02
	c-13.58,12.01-24.86,22.38-42.29,28.19c-7.51,2.75-16.84,8.49-24.85,8.41c-3.07-0.03-6.03-1.1-8.89-2.21
	c-15.87-6.15-31.1-13.95-45.39-23.2c-7.14-4.63-14.06-9.61-20.69-14.95C605.58-368.35,605.09-367.4,598.48-361.82z"/>
<path d="M276.97-456.63c0.51-0.43,25.14,20.63,27.74,22.5c10.51,7.55,21.99,11.13,33.35,16.84c16.06,8.07,26.8,11.58,44.65,5.41
	c25.18-8.7,48.21-23.57,66.5-42.94c-0.83-3.11-4.68-4.56-7.83-3.87c-3.14,0.69-5.7,2.89-8.1,5.02
	c-13.58,12.01-24.86,22.38-42.29,28.19c-7.51,2.75-16.84,8.49-24.85,8.41c-3.07-0.03-6.03-1.1-8.89-2.21
	c-15.87-6.15-31.1-13.95-45.39-23.2c-7.14-4.63-14.06-9.61-20.69-14.95C284.07-463.17,283.58-462.21,276.97-456.63z"/>
<path class="st5" d="M-524.88-616.52v34.47h-9.84v-35.5c0-14.76,30.77-28.33,87.96-28.33c57.92,0,89.41,13.56,89.41,28.22v25.6
	h-9.84v-25.36c0-9.5-44.1-20.65-79.57-20.65C-481.5-638.07-524.88-625.92-524.88-616.52z"/>
<g>
	<path class="st6" d="M-574.34-545.26v24.47h-10.22v-25.5c0-14.76,8.78-26.33,25.09-26.33c16.52,0,25.5,11.56,25.5,26.22v25.6
		h-10.22v-24.36c0-9.5-5.16-17.65-15.28-17.65C-569.39-562.81-574.34-554.65-574.34-545.26z"/>
	<path class="st6" d="M-518.39-546.39c0-14.56,10.43-26.43,25.6-26.43c15.28,0,24.78,11.05,24.78,25.19v4.13h-40.47
		c1.14,8.67,7.74,14.76,16.83,14.76c6.19,0,11.77-2.68,14.76-8.26l7.85,4.03c-4.44,8.67-12.59,13.32-22.51,13.32
		C-506.93-519.66-518.39-530.81-518.39-546.39z M-478.23-550.11c-0.41-8.05-6.3-13.52-14.66-13.52c-8.57,0-14.14,5.99-15.18,13.52
		H-478.23z"/>
	<path class="st6" d="M-454.89-546.19c0-14.56,11.87-26.53,26.43-26.43c9.29,0,17.86,4.23,22.51,13.32l-8.47,4.75
		c-2.99-5.47-8.05-8.36-14.04-8.36c-8.88,0-16.21,7.54-16.21,16.72c0,9.29,7.33,16.93,16.21,16.93c5.99,0,11.05-2.89,14.04-8.36
		l8.47,4.65c-4.65,9.19-13.21,13.32-22.51,13.32C-443.02-519.45-454.89-531.53-454.89-546.19z"/>
	<path class="st6" d="M-387.68-538.96v-23.54h-10.01v-8.88h10.01v-13.11h10.22v13.11h19.41v8.88h-19.41v23.23
		c0,6.61,3.92,10.53,10.01,10.53c3.3,0,6.92-1.24,9.39-2.99v9.39c-2.58,1.76-6.61,2.89-10.32,2.89
		C-380.97-519.45-387.68-527.4-387.68-538.96z"/>
	<path class="st6" d="M-340.81-520.79v-30.15c0-12.29,7.02-21.47,20.24-21.47c3.2,0,6.5,0.62,9.08,1.86v10.12
		c-2.48-1.45-5.37-2.17-8.16-2.17c-6.81,0-10.94,4.65-10.94,12.08v29.73H-340.81z"/>
</g>
<path class="st5" d="M-369.65-503.18c-54.23,42.74-76.29,41.98-78.46,41.78h-0.03c-2.02,0.19-21.25,0.86-67.56-33.45l8.13-5.43
	c14.09,9.71,35.33,22.38,59.45,30.25c28.89-6.62,57.01-27.08,69.96-37.54L-369.65-503.18z"/>
<path class="st5" d="M-570.55-195.63c-4.12-3.94-10.81-7.54-19.96-10.49c-15.06-4.88-36.76-8-64.56-8c-25.41,0-45.6,2.68-60.2,6.95
	c-10.66,3.13-18.33,7.09-22.87,11.48c-3.24,3.13-4.89,6.48-4.89,9.9v35.5h9.84v-34.47c0-3.8,7.13-8.06,17.92-11.8
	c15.83-5.45,39.54-9.75,60.2-9.75c22.55,0,48.59,4.51,64.56,10.24c9.16,3.27,15.02,6.96,15.02,10.42v25.36h9.83v-25.6
	C-565.66-189.24-567.31-192.54-570.55-195.63z"/>
<path class="st5" d="M-581.32-71.42c-54.23,42.74-76.29,41.98-78.46,41.78h-0.03c-2.02,0.19-21.25,0.86-67.56-33.45l8.13-5.43
	c14.09,9.71,35.33,22.38,59.45,30.25c28.89-6.62,57.01-27.08,69.96-37.54L-581.32-71.42z"/>
<path class="st5" d="M-581.32-595.44c-54.23,42.74-76.29,41.98-78.46,41.78h-0.03c-2.02,0.19-21.25,0.86-67.56-33.45l8.13-5.43
	c14.09,9.71,35.33,22.38,59.45,30.25c28.89-6.62,57.01-27.08,69.96-37.54L-581.32-595.44z"/>
<path class="st5" d="M-579.86,122.73c-3.39,2.67-6.66,5.18-9.8,7.51c-34.6,25.81-54.31,32.3-63.15,33.85
	c-3.2,0.55-4.97,0.47-5.51,0.42h-0.04c-0.54,0.05-2.3,0.14-5.48-0.42c-8.12-1.42-25.47-7.02-55.18-28.04
	c-2.23-1.57-4.53-3.23-6.9-4.99l6.9-4.61l1.23-0.82c14.1,9.71,35.34,22.38,59.46,30.25c27.97-6.41,55.21-25.79,68.67-36.51
	c0.45-0.35,0.88-0.7,1.29-1.03L-579.86,122.73z"/>
<path d="M841.96-200.89c-59.7,48.83-83.68,48.01-85.95,47.8h-0.03c-2.27,0.21-26.25,1.03-85.95-47.8c0,0,5.87-2.69,8.56-4.67
	c0,0,34.03,29.69,77.41,43.84c39.42-9.03,77.4-43.84,77.4-43.84C836.4-203.41,841.96-200.89,841.96-200.89z"/>
<polygon class="st3" points="804.09,-210.55 862.72,-180.3 902.01,-206.56 "/>
<polygon class="st3" points="620.46,-210.55 679.09,-180.3 718.37,-206.56 "/>
<rect x="-836.97" y="465.36" style="fill:none;" width="959.25" height="749.7"/>
<text transform="matrix(1 0 0 1 -836.9698 539.1768)"><tspan x="0" y="0" style="font-family:'Chillax-Medium'; font-size:103.2423px;">ffd60a</tspan><tspan x="0" y="123.89" style="font-family:'Chillax-Medium'; font-size:103.2423px;">001d3d</tspan><tspan x="0" y="247.78" style="font-family:'Chillax-Medium'; font-size:103.2423px;">e5e5e5</tspan></text>
<rect x="-965.92" y="-121.86" class="st5" width="133.22" height="133.22"/>
<rect x="-965.92" y="-332.71" class="st7" width="133.22" height="133.22"/>
<rect x="-965.92" y="51.73" class="st6" width="133.22" height="133.22"/>
<path class="st8" d="M-590.51-206.12V-33.7h-124.76v-173.47c14.6-4.27,34.79-6.95,60.2-6.95
	C-627.27-214.12-605.57-211-590.51-206.12z"/>
<path class="st5" d="M874.62,15.82v34.47h-9.84v-35.5c0-14.76,30.77-28.33,87.96-28.33c57.92,0,89.41,13.56,89.41,28.22v25.6h-9.84
	V14.92c0-9.5-44.1-20.65-79.57-20.65C917.99-5.73,874.62,6.43,874.62,15.82z"/>
<path class="st5" d="M1029.84,129.16c-54.23,42.74-76.29,41.98-78.46,41.78h-0.03c-2.02,0.19-21.25,0.86-67.56-33.45l8.13-5.43
	c14.09,9.71,35.33,22.38,59.45,30.25c28.89-6.62,57.01-27.08,69.96-37.54L1029.84,129.16z"/>
<path class="st5" d="M314.3-713.27v34.47h-9.84v-35.5c0-14.76,30.77-28.33,87.96-28.33c57.92,0,89.41,13.56,89.41,28.22v25.6H472
	v-25.36c0-9.5-44.1-20.65-79.57-20.65C357.68-734.82,314.3-722.66,314.3-713.27z"/>
<path class="st5" d="M661.96-738.24c-54.23,42.74-76.29,41.98-78.46,41.78h-0.03c-2.02,0.19-21.25,0.86-67.56-33.45l8.13-5.43
	c14.09,9.71,35.33,22.38,59.45,30.25c28.89-6.62,57.01-27.08,69.96-37.54L661.96-738.24z"/>
<g>
	<path class="st6" d="M812.8,86.57c0-14.56,11.87-26.53,26.43-26.43c9.29,0,17.86,4.23,22.51,13.32l-8.47,4.75
		c-2.99-5.47-8.05-8.36-14.04-8.36c-8.88,0-16.21,7.54-16.21,16.72c0,9.29,7.33,16.93,16.21,16.93c5.99,0,11.05-2.89,14.04-8.36
		l8.47,4.65c-4.65,9.19-13.21,13.32-22.51,13.32C824.67,113.31,812.8,101.23,812.8,86.57z"/>
	<path class="st6" d="M888.58,87.5v24.47h-10.22v-25.5c0-14.76,8.78-26.33,25.09-26.33c16.52,0,25.5,11.56,25.5,26.22v25.6h-10.22
		V87.6c0-9.5-5.16-17.65-15.28-17.65C893.53,69.95,888.58,78.1,888.58,87.5z"/>
	<path class="st6" d="M946.6,86.57c0-14.56,11.87-26.53,26.43-26.43c9.29,0,17.86,4.23,22.51,13.32l-8.46,4.75
		c-2.99-5.47-8.05-8.36-14.04-8.36c-8.88,0-16.21,7.54-16.21,16.72c0,9.29,7.33,16.93,16.21,16.93c5.99,0,11.05-2.89,14.04-8.36
		l8.46,4.65c-4.65,9.19-13.21,13.32-22.51,13.32C958.47,113.31,946.6,101.23,946.6,86.57z"/>
	<path class="st6" d="M1015.87,93.8V70.26h-10.01v-8.88h10.01V48.27h10.22v13.11h19.41v8.88h-19.41v23.23
		c0,6.61,3.92,10.53,10.01,10.53c3.3,0,6.92-1.24,9.39-2.99v9.39c-2.58,1.75-6.61,2.89-10.32,2.89
		C1022.58,113.31,1015.87,105.36,1015.87,93.8z"/>
	<path class="st6" d="M1064.81,111.97V81.82c0-12.29,7.02-21.47,20.24-21.47c3.2,0,6.5,0.62,9.08,1.86v10.12
		c-2.48-1.45-5.37-2.17-8.16-2.17c-6.81,0-10.94,4.65-10.94,12.08v29.73H1064.81z"/>
</g>
<text transform="matrix(1 0 0 1 712.1346 283.8926)" style="font-family:'Chillax-Medium'; font-size:35.6435px; letter-spacing:2;">CONNECTED</text>
<g>
	<path class="st7" d="M19.38,47.93c-6.52,0-11.9-5.59-11.9-12.41c0-6.74,5.38-12.28,11.9-12.28c4.4,0,8.1,2.12,10.31,6.14l6.2-3.48
		c-3.4-6.67-9.69-9.77-16.51-9.77C8.69,16.06,0,24.84,0,35.53c0,10.75,8.69,19.61,19.38,19.46c6.82,0,13.11-3.04,16.51-9.77
		l-6.2-3.4C27.47,45.83,23.78,47.93,19.38,47.93z"/>
	<path class="st7" d="M65.57,16.13c-11.13,0-19.85,8.71-19.85,19.4c0,10.75,8.65,19.53,19.85,19.53c11.13,0,19.7-8.78,19.7-19.53
		C85.27,24.92,76.79,16.13,65.57,16.13z M65.57,47.93c-6.97,0-12.34-5.59-12.34-12.34c0-6.8,5.38-12.41,12.34-12.41
		c6.91,0,12.2,5.61,12.2,12.41C77.77,42.35,72.48,47.93,65.57,47.93z"/>
	<path class="st7" d="M127.83,54.16h7.5v-7.88h-7.5V54.16z M116.63,16.13c-11.98,0-18.42,8.5-18.42,19.31v3.06h7.5v-2.29
		c0-6.88,3.63-12.88,10.92-12.88c7.42,0,11.2,5.99,11.2,12.94v2.23h7.5v-3.12C135.33,24.63,128.74,16.13,116.63,16.13z M98.21,54.16
		h7.5v-7.88h-7.5V54.16z"/>
	<path class="st7" d="M180.24,54.16h7.48v-7.88h-7.48V54.16z M169.02,16.13c-11.96,0-18.4,8.5-18.4,19.31v3.06h7.5v-2.29
		c0-6.88,3.63-12.88,10.9-12.88c7.42,0,11.22,5.99,11.22,12.94v2.23h7.48v-3.12C187.72,24.63,181.14,16.13,169.02,16.13z
		 M150.62,54.16h7.5v-7.88h-7.5V54.16z"/>
	<path class="st7" d="M237.63,34.46c0-10.37-6.97-18.49-18.17-18.49c-11.13,0-18.78,8.71-18.78,19.4c0,11.43,8.41,19.61,19.7,19.61
		c7.27,0,13.24-3.42,16.51-9.77l-5.76-2.95c-2.21,4.1-6.29,6.06-10.84,6.06c-6.67,0-11.52-4.46-12.34-10.84h29.68V34.46z
		 M208.25,32.64c0.76-5.52,4.84-9.92,11.13-9.92c6.14,0,10.45,4.02,10.75,9.92H208.25z"/>
	<path class="st7" d="M268.16,47.93c-6.52,0-11.9-5.59-11.9-12.41c0-6.74,5.38-12.28,11.9-12.28c4.38,0,8.1,2.12,10.28,6.14
		l6.23-3.48c-3.42-6.67-9.69-9.77-16.51-9.77c-10.69-0.06-19.4,8.71-19.4,19.4c0,10.75,8.71,19.61,19.4,19.46
		c6.82,0,13.09-3.04,16.51-9.77l-6.23-3.4C276.26,45.83,272.54,47.93,268.16,47.93z"/>
	<path class="st7" d="M321.33,23.56v-6.52h-14.24V7.42h-7.5v9.63h-7.35v6.52h7.35v17.25c0,8.5,4.93,14.32,14.15,14.32
		c2.74,0,5.69-0.83,7.59-2.12v-6.88c-1.83,1.27-4.46,2.19-6.88,2.19c-4.48,0-7.35-2.87-7.35-7.71V23.56H321.33z"/>
	<path class="st7" d="M369.35,34.46c0-10.37-6.97-18.49-18.19-18.49c-11.13,0-18.78,8.71-18.78,19.4c0,11.43,8.41,19.61,19.7,19.61
		c7.27,0,13.26-3.42,16.51-9.77l-5.76-2.95c-2.19,4.1-6.29,6.06-10.84,6.06c-6.65,0-11.49-4.46-12.34-10.84h29.7V34.46z
		 M339.96,32.64c0.74-5.52,4.84-9.92,11.13-9.92c6.12,0,10.45,4.02,10.75,9.92H339.96z"/>
	<path class="st7" d="M412.5,0l-0.06,21.65c-3.04-3.31-7.59-5.52-12.58-5.52c-11.2,0-19.38,8.27-19.38,19.55
		c0,10.69,8.48,19.38,19.76,19.38c11.22,0,19.76-8.39,19.76-19.38V0H412.5z M400.24,48.02c-6.88,0-12.28-5.61-12.28-12.43
		c0-6.74,5.4-12.34,12.28-12.34c6.97,0,12.26,5.61,12.26,12.34C412.5,42.41,407.21,48.02,400.24,48.02z"/>
</g>
<text transform="matrix(1 0 0 1 122.2808 391.5739)" style="font-family:'Chillax-Medium'; font-size:35.6435px; letter-spacing:2;">connected</text>
<text transform="matrix(1 0 0 1 761.786 251.3947)" style="font-family:'Chillax-Medium'; font-size:35.6435px; letter-spacing:2;">SAFE &amp;</text>
<text transform="matrix(1 0 0 1 -663.0243 -805.1512)" style="font-family:'Chillax-Medium'; font-size:103.2423px;">faf089</text>
<rect x="402.49" y="-819.42" class="st3" width="35.02" height="5.87"/>
<path d="M171.98,463.1c0-8.4,6.85-15.31,15.25-15.25c5.36,0,10.31,2.44,12.99,7.69l-4.89,2.74c-1.73-3.16-4.65-4.83-8.1-4.83
	c-5.12,0-9.35,4.35-9.35,9.65c0,5.36,4.23,9.77,9.35,9.77c3.46,0,6.38-1.67,8.1-4.83l4.89,2.68c-2.68,5.3-7.63,7.69-12.99,7.69
	C178.83,478.54,171.98,471.56,171.98,463.1z"/>
<path d="M207.96,463.1c0-8.4,6.85-15.25,15.61-15.25c8.82,0,15.49,6.91,15.49,15.25c0,8.46-6.73,15.37-15.49,15.37
	C214.76,478.48,207.96,471.56,207.96,463.1z M233.17,463.16c0-5.36-4.17-9.77-9.59-9.77c-5.48,0-9.71,4.41-9.71,9.77
	c0,5.3,4.23,9.71,9.71,9.71C229,472.88,233.17,468.47,233.17,463.16z"/>
<path d="M255.15,463.64v14.12h-5.9v-14.72c0-8.52,5.06-15.19,14.48-15.19c9.53,0,14.72,6.67,14.72,15.13v14.78h-5.9V463.7
	c0-5.48-2.98-10.19-8.82-10.19C258.01,453.51,255.15,458.22,255.15,463.64z"/>
<path d="M288.64,462.98c0-8.4,6.02-15.25,14.78-15.25c8.82,0,14.3,6.38,14.3,14.54v2.38h-23.36c0.66,5.01,4.47,8.52,9.71,8.52
	c3.58,0,6.79-1.55,8.52-4.77l4.53,2.32c-2.56,5-7.27,7.69-12.99,7.69C295.25,478.42,288.64,471.98,288.64,462.98z M311.81,460.84
	c-0.24-4.65-3.63-7.81-8.46-7.81c-4.95,0-8.16,3.46-8.76,7.81H311.81z"/>
<path d="M326.47,463.1c0-8.4,6.85-15.31,15.25-15.25c5.36,0,10.31,2.44,12.99,7.69l-4.89,2.74c-1.73-3.16-4.65-4.83-8.1-4.83
	c-5.12,0-9.36,4.35-9.36,9.65c0,5.36,4.23,9.77,9.36,9.77c3.46,0,6.38-1.67,8.1-4.83l4.89,2.68c-2.68,5.3-7.63,7.69-12.99,7.69
	C333.32,478.54,326.47,471.56,326.47,463.1z"/>
<path d="M366.45,467.27v-13.59h-5.78v-5.12h5.78V441h5.9v7.57h11.2v5.12h-11.2v13.41c0,3.81,2.26,6.08,5.78,6.08
	c1.91,0,3.99-0.72,5.42-1.73v5.42c-1.49,1.01-3.81,1.67-5.96,1.67C370.32,478.54,366.45,473.95,366.45,467.27z"/>
<path d="M394.69,477.76v-17.4c0-7.09,4.05-12.39,11.68-12.39c1.85,0,3.75,0.36,5.24,1.07v5.84c-1.43-0.83-3.1-1.25-4.71-1.25
	c-3.93,0-6.32,2.68-6.32,6.97v17.16H394.69z"/>
<rect x="246.82" y="466.88" class="st3" width="35.02" height="5.87"/>
<g>
	<path d="M-105.66,382.34c0-5.03,4.1-9.16,9.12-9.12c3.21,0,6.17,1.46,7.77,4.6l-2.92,1.64c-1.03-1.89-2.78-2.89-4.85-2.89
		c-3.07,0-5.6,2.6-5.6,5.77c0,3.21,2.53,5.85,5.6,5.85c2.07,0,3.81-1,4.85-2.89l2.92,1.6c-1.6,3.17-4.56,4.6-7.77,4.6
		C-101.56,391.57-105.66,387.4-105.66,382.34z"/>
	<path d="M-84.13,382.34c0-5.03,4.1-9.12,9.34-9.12c5.28,0,9.27,4.13,9.27,9.12c0,5.06-4.03,9.2-9.27,9.2
		C-80.07,391.54-84.13,387.4-84.13,382.34z M-69.05,382.38c0-3.21-2.5-5.85-5.74-5.85c-3.28,0-5.81,2.64-5.81,5.85
		c0,3.17,2.53,5.81,5.81,5.81C-71.55,388.19-69.05,385.55-69.05,382.38z"/>
	<path d="M-55.9,382.66v8.45h-3.53v-8.8c0-5.1,3.03-9.09,8.66-9.09c5.7,0,8.8,3.99,8.8,9.05v8.84h-3.53v-8.41
		c0-3.28-1.78-6.09-5.28-6.09C-54.19,376.6-55.9,379.42-55.9,382.66z"/>
	<path d="M-31.24,382.66v8.45h-3.53v-8.8c0-5.1,3.03-9.09,8.66-9.09c5.7,0,8.8,3.99,8.8,9.05v8.84h-3.53v-8.41
		c0-3.28-1.78-6.09-5.28-6.09C-29.53,376.6-31.24,379.42-31.24,382.66z"/>
	<path d="M-11.21,382.27c0-5.03,3.6-9.12,8.84-9.12c5.28,0,8.55,3.81,8.55,8.7v1.43H-7.78c0.39,2.99,2.67,5.1,5.81,5.1
		c2.14,0,4.06-0.93,5.1-2.85l2.71,1.39c-1.53,2.99-4.35,4.6-7.77,4.6C-7.25,391.5-11.21,387.65-11.21,382.27z M2.66,380.99
		c-0.14-2.78-2.17-4.67-5.06-4.67c-2.96,0-4.88,2.07-5.24,4.67H2.66z"/>
	<path d="M11.43,382.34c0-5.03,4.1-9.16,9.12-9.12c3.21,0,6.17,1.46,7.77,4.6l-2.92,1.64c-1.03-1.89-2.78-2.89-4.85-2.89
		c-3.07,0-5.6,2.6-5.6,5.77c0,3.21,2.53,5.85,5.6,5.85c2.07,0,3.81-1,4.85-2.89l2.92,1.6c-1.6,3.17-4.56,4.6-7.77,4.6
		C15.53,391.57,11.43,387.4,11.43,382.34z"/>
	<path d="M35.34,384.84v-8.13h-3.46v-3.07h3.46v-4.53h3.53v4.53h6.7v3.07h-6.7v8.02c0,2.28,1.35,3.63,3.46,3.63
		c1.14,0,2.39-0.43,3.24-1.03v3.24c-0.89,0.61-2.28,1-3.56,1C37.66,391.57,35.34,388.83,35.34,384.84z"/>
	<path d="M50.78,382.27c0-5.03,3.6-9.12,8.84-9.12c5.28,0,8.55,3.81,8.55,8.7v1.43H54.2c0.39,2.99,2.67,5.1,5.81,5.1
		c2.14,0,4.06-0.93,5.1-2.85l2.71,1.39c-1.53,2.99-4.35,4.6-7.77,4.6C54.73,391.5,50.78,387.65,50.78,382.27z M64.64,380.99
		c-0.14-2.78-2.17-4.67-5.06-4.67c-2.96,0-4.88,2.07-5.24,4.67H64.64z"/>
	<path d="M73.41,382.41c0-5.31,3.85-9.2,9.12-9.2c2.35,0,4.49,1.03,5.92,2.6l0.04-10.19h3.53v16.79c0,5.17-4.03,9.12-9.3,9.12
		C77.4,391.54,73.41,387.44,73.41,382.41z M88.49,382.38c0-3.17-2.49-5.81-5.77-5.81c-3.24,0-5.78,2.64-5.78,5.81
		c0,3.21,2.53,5.85,5.78,5.85C85.99,388.22,88.49,385.59,88.49,382.38z"/>
</g>
<rect x="-61.05" y="383.74" transform="matrix(-1 -1.224647e-16 1.224647e-16 -1 -77.2007 771.1381)" class="st3" width="44.9" height="3.66"/>
<path d="M363.3-791.02v-5.01h-5.9v5.01H363.3z"/>
<rect x="701.42" y="-640.77" transform="matrix(-1.836970e-16 1 -1 -1.836970e-16 87.4493 -1363.1112)" class="st3" width="47.72" height="5.87"/>
<rect x="394.2" y="-796.03" width="5.9" height="5.01"/>
<rect x="406.6" y="471.86" width="5.01" height="5.9"/>
<rect x="437.59" y="-796.03" width="5.9" height="5.01"/>
<rect x="475.93" y="-796.03" width="5.9" height="5.01"/>
<rect x="511.47" y="-796.03" width="5.9" height="5.01"/>
</svg>
