<?xml version="1.0" encoding="utf-8"?>
<!-- Generator: Adobe Illustrator 27.7.0, SVG Export Plug-In . SVG Version: 6.00 Build 0)  -->
<svg version="1.1" id="Layer_1" xmlns="http://www.w3.org/2000/svg" xmlns:xlink="http://www.w3.org/1999/xlink" x="0px" y="0px"
	 viewBox="0 0 503.1 89.6" style="enable-background:new 0 0 503.1 89.6;" xml:space="preserve">
<style type="text/css">
	.st0{fill:#E5E5E5;}
	.st1{fill:#FFDE17;}
	.st2{fill:none;stroke:#000000;stroke-miterlimit:10;}
	.st3{fill:#FFFFFF;}
	.st4{fill:#FFFFFF;stroke:#000000;stroke-width:0.7663;stroke-miterlimit:10;}
	.st5{fill:#FED607;}
	.st6{fill:#051E3C;}
	.st7{fill:#FAF189;}
	.st8{fill:none;stroke:#000000;stroke-width:0.6893;stroke-miterlimit:10;}
	.st9{fill:none;}
</style>
<path class="st0" d="M-524.11-693.03v22.73H-529v128.34h-167.59V-660.8h-4.89v-32.13c0-3.42,1.65-6.77,4.89-9.9
	c4.54-4.39,12.21-8.35,22.87-11.48c14.6-4.27,34.79-6.95,60.2-6.95c27.8,0,49.5,3.12,64.56,8c9.15,2.95,15.84,6.55,19.96,10.49
	C-525.76-699.68-524.11-696.38-524.11-693.03z"/>
<path class="st0" d="M-159.7-446.14l-19.13-75.77v-26.81c0-2.85,1.06-5.65,3.15-8.26c2.92-3.66,7.86-6.97,14.73-9.58
	c9.4-3.56,38.38-5.8,54.76-5.8c17.91,0,47.86,2.6,57.56,6.68c5.89,2.46,10.21,5.47,12.86,8.75c2.09,2.58,3.15,5.33,3.15,8.13v18.97
	l-19.12,78.85c-28.87,21.54-45.32,26.95-52.7,28.25h-9.2L-159.7-446.14z"/>
<path class="st0" d="M758.32-277.13l-19.13-75.77v-26.81c0-2.85,1.06-5.65,3.15-8.26c2.92-3.66,7.86-6.97,14.73-9.58
	c9.4-3.56,38.38-5.8,54.76-5.8c17.91,0,47.86,2.6,57.56,6.68c5.89,2.46,10.21,5.47,12.86,8.75c2.09,2.58,3.15,5.33,3.15,8.13v18.97
	l-19.12,78.85c-28.87,21.54-45.32,26.95-52.7,28.25h-9.2L758.32-277.13z"/>
<path d="M-92.5,185.58h-220.49c-9.15,0-16.57-7.42-16.57-16.57v-9.54c0-9.15,7.42-16.57,16.57-16.57H-92.5
	c9.15,0,16.57,7.42,16.57,16.57v9.54C-75.93,178.17-83.35,185.58-92.5,185.58z"/>
<rect x="158.09" y="-479.37" class="st1" width="367.28" height="16.81"/>
<path class="st2" d="M413.43-420.69c-0.79,0.66-1.79,1.2-2.99,1.63c-1.21,0.43-2.45,0.64-3.72,0.64c-2.1,0-3.57-0.56-4.41-1.7
	c-0.85-1.14-1.27-2.82-1.27-5.06v-26.27c0-3.48-0.45-6-1.34-7.57c-0.9-1.56-2.6-2.35-5.11-2.35c-1.72,0-3.59,0.42-5.6,1.24
	c-2.02,0.83-3.92,2.01-5.71,3.54c-0.59,0.5-1.14,1.03-1.65,1.59v35.91c-0.69,0.14-1.49,0.24-2.42,0.31
	c-0.93,0.07-1.88,0.11-2.84,0.11c-0.97,0-1.91-0.04-2.84-0.11c-0.93-0.07-1.78-0.17-2.53-0.31v-50.74l0.67-0.67h3.97
	c2.24,0,3.8,0.67,4.68,2.01c0.72,1.1,1.14,2.56,1.27,4.37c1.72-1.53,3.67-2.89,5.82-4.08c3.34-1.85,6.87-2.77,10.59-2.77
	c3.23,0,5.85,0.75,7.84,2.25c2,1.5,3.47,3.52,4.42,6.06c0.94,2.55,1.42,5.42,1.42,8.63v24.05c0,1.79,0.12,3.49,0.38,5.09
	C412.32-423.29,412.78-421.89,413.43-420.69z"/>
<path class="st2" d="M454.84-501.84c-1.55-3.32-3.85-5.96-6.89-7.92c-3.05-1.96-6.81-2.94-11.28-2.94c-4.75,0-8.73,1.17-11.93,3.51
	c-3.2,2.34-5.6,5.54-7.2,9.6c-1.6,4.06-2.4,8.66-2.4,13.78c0,3.48,0.35,6.82,1.06,10.02c0.7,3.2,1.86,6.06,3.46,8.59
	c1.6,2.53,3.77,4.52,6.5,5.96c2.74,1.45,6.15,2.17,10.25,2.17c3.61,0,7.13-0.52,10.55-1.57c3.43-1.05,6.36-2.47,8.81-4.26
	c-0.14-1.1-0.51-2.3-1.11-3.59c-0.61-1.29-1.35-2.36-2.25-3.23c-2.17,1.14-4.46,2.08-6.87,2.82c-2.4,0.74-4.9,1.11-7.48,1.11
	c-3.17,0-5.61-0.75-7.33-2.25c-1.72-1.49-2.92-3.54-3.59-6.14c-0.5-1.93-0.81-4.04-0.94-6.32h30.19c0.27-1.45,0.47-2.77,0.59-3.95
	c0.12-1.19,0.18-2.61,0.18-4.26C457.16-494.81,456.39-498.51,454.84-501.84z M446.89-490.25h-20.7c0.2-4.22,1.06-7.61,2.58-10.17
	c1.75-2.96,4.39-4.44,7.9-4.44c2.47,0,4.46,0.61,5.96,1.81c1.5,1.21,2.58,2.81,3.25,4.83c0.67,2.01,1.01,4.22,1.01,6.63V-490.25z"/>
<path class="st2" d="M511.05-414.25c0.1-2.24-0.09-4.33-0.59-6.27c-0.5-1.94-1.41-3.53-2.74-4.75c-1.33-1.22-3.24-1.83-5.76-1.83
	c-3.27,0-5.81,1.57-7.61,4.72s-2.71,7.89-2.71,14.22c0,6.19,1.02,10.71,3.07,13.55c2.05,2.84,4.91,4.26,8.59,4.26
	c2.34,0,4.57-0.53,6.69-1.6c2.12-1.07,4.07-2.29,5.86-3.67c0.93,0.59,1.85,1.51,2.76,2.76c0.91,1.26,1.49,2.47,1.73,3.64
	c-2.34,2.27-5.11,4.1-8.31,5.5c-3.2,1.39-6.66,2.09-10.38,2.09c-3.68,0-6.85-0.71-9.5-2.12s-4.83-3.35-6.53-5.81
	c-1.7-2.46-2.97-5.29-3.79-8.49c-0.83-3.2-1.24-6.57-1.24-10.12c0-4.78,0.6-8.89,1.81-12.31c1.2-3.42,2.84-6.23,4.9-8.41
	c2.07-2.19,4.38-3.79,6.94-4.83s5.22-1.55,7.98-1.55c3.13,0,5.87,0.46,8.21,1.39c2.34,0.93,4.29,2.16,5.86,3.69
	c1.57,1.53,2.73,3.21,3.48,5.03c0.76,1.82,1.14,3.63,1.14,5.42c0,1.82-0.43,3.27-1.29,4.34c-0.86,1.07-2.24,1.6-4.13,1.6
	c-0.86,0-1.63-0.03-2.32-0.1C512.48-413.96,511.77-414.08,511.05-414.25z"/>
<path class="st2" d="M560.47-385.01v30.87c0,1.38,0.32,2.47,0.98,3.28c0.65,0.81,1.75,1.21,3.3,1.21h7.13
	c0.55,1.62,0.82,3.41,0.82,5.37c0,0.38-0.01,0.78-0.02,1.19c-0.02,0.41-0.08,0.79-0.18,1.14c-1.72,0.2-3.57,0.38-5.53,0.54
	c-1.96,0.15-3.96,0.23-5.99,0.23c-3.51,0-6.21-0.89-8.1-2.66c-1.89-1.77-2.84-4.43-2.84-7.97v-33.15l-7.59,0.11
	c-0.27-1.27-0.41-2.6-0.41-3.98c0-1.24,0.14-2.53,0.41-3.87l7.59,0.11v-9.04c0-2.37,0.4-4.1,1.19-5.19c0.79-1.08,2.3-1.62,4.54-1.62
	h4.03l0.67,0.72v15.18l12.75-0.16c0.34,1.28,0.52,2.57,0.52,3.87c0,1.45-0.18,2.77-0.52,3.98L560.47-385.01z"/>
<path class="st2" d="M621.42-366.63c0,1.45-0.21,3.13-0.62,5.04c-0.41,1.91-1.08,3.58-2.01,5.03c-0.66-0.17-1.34-0.28-2.07-0.34
	c-0.72-0.05-1.43-0.09-2.11-0.13c-1.97,0-3.68,0.41-5.14,1.22s-2.7,1.86-3.72,3.15c-0.85,1.09-1.6,2.26-2.24,3.54v33.6
	c-0.72,0.14-1.55,0.24-2.48,0.31s-1.88,0.1-2.84,0.1c-0.96,0-1.91-0.03-2.84-0.1s-1.75-0.17-2.48-0.31v-35.41
	c0-2.76-0.41-5.01-1.24-6.77c-0.82-1.75-1.68-3.04-2.58-3.87c0.24-0.93,0.74-1.97,1.5-3.12c0.76-1.15,1.55-2.01,2.38-2.56
	c3.44,0.76,6,2.49,7.69,5.19c0.75,1.21,1.36,2.56,1.81,4.05c0.34-0.73,0.7-1.45,1.1-2.14c1.22-2.12,2.86-3.82,4.91-5.11
	c2.04-1.29,4.53-1.93,7.46-1.93c0.93,0,1.83,0.04,2.71,0.12C619.48-366.98,620.42-366.83,621.42-366.63z"/>
<path d="M-273.07,296.37c0-10.1,7.24-18.34,17.77-18.34c10.6,0,17.2,7.67,17.2,17.48v2.87h-28.09c0.79,6.02,5.37,10.25,11.68,10.25
	c4.3,0,8.17-1.86,10.25-5.73l5.45,2.79c-3.08,6.02-8.74,9.24-15.62,9.24C-265.11,314.93-273.07,307.19-273.07,296.37z
	 M-245.19,293.79c-0.29-5.59-4.37-9.39-10.18-9.39c-5.95,0-9.82,4.16-10.53,9.39H-245.19z"/>
<path d="M-218.97,296.52c0-10.1,8.24-18.42,18.34-18.34c6.45,0,12.4,2.94,15.62,9.24l-5.88,3.3c-2.08-3.8-5.59-5.8-9.74-5.8
	c-6.16,0-11.25,5.23-11.25,11.61c0,6.45,5.09,11.75,11.25,11.75c4.16,0,7.67-2.01,9.74-5.8l5.88,3.22
	c-3.22,6.38-9.17,9.24-15.62,9.24C-210.73,315.08-218.97,306.69-218.97,296.52z"/>
<path d="M-162.29,301.53V285.2h-6.95v-6.16h6.95v-9.1h7.09v9.1h13.47v6.16h-13.47v16.12c0,4.59,2.72,7.31,6.95,7.31
	c2.29,0,4.8-0.86,6.52-2.08v6.52c-1.79,1.22-4.59,2.01-7.17,2.01C-157.63,315.08-162.29,309.56-162.29,301.53z"/>
<path d="M-119.72,314.14v-20.92c0-8.53,4.87-14.9,14.04-14.9c2.22,0,4.51,0.43,6.31,1.29v7.02c-1.72-1-3.73-1.5-5.66-1.5
	c-4.73,0-7.6,3.22-7.6,8.38v20.64H-119.72z"/>
<g>
	<g>
		<path d="M674.29-499.19c2.24,0,3.79,0.67,4.67,2.01c0.88,1.34,1.32,3.2,1.32,5.58v43.83c-0.69,0.14-1.5,0.24-2.43,0.31
			c-0.93,0.07-1.88,0.1-2.84,0.1s-1.91-0.03-2.84-0.1c-0.93-0.07-1.77-0.17-2.53-0.31v-50.74l0.67-0.67H674.29z M710.33-458.67
			c0,1.79,0.13,3.48,0.39,5.08c0.26,1.6,0.71,3,1.37,4.21c-0.79,0.65-1.79,1.2-2.99,1.63c-1.21,0.43-2.44,0.65-3.72,0.65
			c-2.1,0-3.57-0.57-4.41-1.7c-0.84-1.14-1.27-2.82-1.27-5.06v-26.28c0-3.48-0.45-6-1.34-7.56c-0.9-1.57-2.6-2.35-5.11-2.35
			c-1.72,0-3.59,0.41-5.6,1.24c-2.01,0.83-3.92,2.01-5.7,3.54c-1.79,1.53-3.24,3.31-4.34,5.34v-10.22c2.31-2.65,5.13-4.9,8.47-6.74
			c3.34-1.84,6.87-2.76,10.58-2.76c3.23,0,5.85,0.75,7.85,2.25s3.47,3.52,4.41,6.07c0.95,2.55,1.42,5.42,1.42,8.62V-458.67z"/>
		<path d="M747.75-469.87v-7.74h25.04v-1.34c0-2.41-0.34-4.62-1.01-6.63s-1.75-3.62-3.25-4.83c-1.5-1.2-3.48-1.81-5.96-1.81
			c-3.51,0-6.14,1.48-7.9,4.44c-1.75,2.96-2.63,7.04-2.63,12.23v3.25c0,3.24,0.33,6.15,1.01,8.75c0.67,2.6,1.87,4.65,3.59,6.14
			s4.16,2.25,7.33,2.25c2.58,0,5.08-0.37,7.48-1.11c2.41-0.74,4.7-1.68,6.87-2.81c0.89,0.86,1.64,1.94,2.25,3.23
			c0.6,1.29,0.97,2.49,1.11,3.59c-2.44,1.79-5.38,3.21-8.8,4.26c-3.42,1.05-6.94,1.57-10.56,1.57c-4.1,0-7.51-0.72-10.25-2.17
			c-2.74-1.45-4.9-3.43-6.5-5.96s-2.75-5.39-3.46-8.6c-0.71-3.2-1.06-6.54-1.06-10.01c0-5.13,0.8-9.72,2.4-13.78
			c1.6-4.06,4-7.26,7.2-9.6c3.2-2.34,7.17-3.51,11.92-3.51c4.47,0,8.23,0.98,11.28,2.94c3.05,1.96,5.34,4.6,6.89,7.92
			c1.55,3.32,2.32,7.03,2.32,11.12c0,1.65-0.06,3.07-0.18,4.26c-0.12,1.19-0.32,2.5-0.59,3.95H747.75z"/>
		<path d="M841.75-479.06c0.1-2.24-0.09-4.33-0.59-6.27c-0.5-1.94-1.41-3.53-2.74-4.75c-1.33-1.22-3.24-1.83-5.76-1.83
			c-3.27,0-5.81,1.57-7.61,4.72s-2.71,7.89-2.71,14.22c0,6.19,1.02,10.71,3.07,13.55c2.05,2.84,4.91,4.26,8.59,4.26
			c2.34,0,4.57-0.53,6.69-1.6c2.12-1.07,4.07-2.29,5.86-3.67c0.93,0.59,1.85,1.51,2.76,2.76c0.91,1.26,1.49,2.47,1.73,3.64
			c-2.34,2.27-5.11,4.1-8.31,5.5c-3.2,1.39-6.66,2.09-10.38,2.09c-3.68,0-6.85-0.71-9.5-2.12s-4.83-3.35-6.53-5.81
			c-1.7-2.46-2.97-5.29-3.79-8.49c-0.83-3.2-1.24-6.57-1.24-10.12c0-4.78,0.6-8.89,1.81-12.31c1.2-3.42,2.84-6.23,4.9-8.41
			c2.07-2.19,4.38-3.79,6.94-4.83s5.22-1.55,7.98-1.55c3.13,0,5.87,0.46,8.21,1.39c2.34,0.93,4.29,2.16,5.86,3.69
			c1.57,1.53,2.73,3.21,3.48,5.03c0.76,1.82,1.14,3.63,1.14,5.42c0,1.82-0.43,3.27-1.29,4.34c-0.86,1.07-2.24,1.6-4.13,1.6
			c-0.86,0-1.63-0.03-2.32-0.1C843.18-478.77,842.47-478.89,841.75-479.06z"/>
		<path d="M907.15-498.83c0.34,1.27,0.52,2.56,0.52,3.87c0,1.45-0.17,2.77-0.52,3.97l-16.88-0.21l-13.89,0.21
			c-0.28-1.27-0.41-2.6-0.41-3.97c0-1.24,0.14-2.53,0.41-3.87l14.04,0.21L907.15-498.83z M883.98-507.76c0-2.37,0.4-4.1,1.19-5.19
			c0.79-1.08,2.3-1.63,4.54-1.63h4.03l0.67,0.72v53.58c0,1.38,0.33,2.47,0.98,3.28c0.65,0.81,1.75,1.21,3.3,1.21h7.12
			c0.55,1.62,0.83,3.41,0.83,5.37c0,0.38-0.01,0.77-0.03,1.19c-0.02,0.41-0.08,0.79-0.18,1.14c-1.72,0.21-3.56,0.39-5.52,0.54
			s-3.96,0.23-5.99,0.23c-3.51,0-6.21-0.89-8.1-2.66c-1.89-1.77-2.84-4.43-2.84-7.98V-507.76z"/>
		<path d="M933.95-493.82c0.24-0.93,0.74-1.97,1.5-3.12c0.76-1.15,1.55-2,2.38-2.56c3.44,0.76,6,2.49,7.69,5.19
			c1.69,2.7,2.65,6.1,2.89,10.2v36.34c-0.72,0.14-1.55,0.24-2.48,0.31c-0.93,0.07-1.88,0.1-2.84,0.1c-0.96,0-1.91-0.03-2.84-0.1
			c-0.93-0.07-1.75-0.17-2.48-0.31v-35.41c0-2.75-0.41-5.01-1.24-6.76C935.7-491.71,934.84-493,933.95-493.82z M966.31-498.88
			c0,1.45-0.21,3.12-0.62,5.03c-0.41,1.91-1.08,3.59-2.01,5.03c-0.65-0.17-1.34-0.28-2.06-0.34c-0.72-0.05-1.43-0.09-2.12-0.13
			c-1.96,0-3.67,0.4-5.14,1.21c-1.46,0.81-2.7,1.86-3.72,3.15c-1.02,1.29-1.88,2.71-2.61,4.26c-0.72,1.55-1.31,3.06-1.75,4.54
			l-1.55-1.96c0.07-2.44,0.39-4.91,0.98-7.41c0.58-2.49,1.49-4.8,2.71-6.92c1.22-2.12,2.86-3.82,4.9-5.11
			c2.05-1.29,4.53-1.94,7.46-1.94c0.93,0,1.83,0.04,2.71,0.13C964.38-499.23,965.31-499.09,966.31-498.88z"/>
	</g>
</g>
<polygon points="-27.21,-521.34 -27.21,-447.54 318.53,-447.54 318.53,-694.34 "/>
<path class="st3" d="M403.27-791.89c0.01,1.11-0.36,2.08-1.01,2.95c-0.52,0.69-1.18,1.21-1.97,1.57c-0.06,0.03-0.12,0.15-0.12,0.23
	c0.01,1.77,0.02,3.53,0.03,5.3c0,0.42-0.06,0.83-0.36,1.16c-0.3,0.33-0.63,0.59-1.11,0.62c-0.43,0.03-0.84,0.09-1.26-0.06
	c-0.6-0.21-1.12-0.76-1.12-1.47c-0.01-1.55,0-3.1-0.01-4.65c0-0.3-0.01-0.59-0.04-0.89c-0.01-0.07-0.08-0.17-0.15-0.2
	c-1.03-0.4-1.82-1.09-2.38-2.03c-0.25-0.42-0.42-0.9-0.61-1.36c-0.03-0.07,0-0.16-0.01-0.23c-0.12-0.59-0.1-1.19-0.04-1.78
	c0.08-0.72,0.37-1.37,0.78-1.96c0.47-0.69,1.08-1.26,1.83-1.64c0.48-0.24,0.97-0.44,1.53-0.49c0.75-0.07,1.5-0.08,2.23,0.08
	c0.54,0.12,1.07,0.4,1.55,0.69c1.1,0.69,1.79,1.71,2.11,2.96C403.22-792.7,403.22-792.29,403.27-791.89z"/>
<text transform="matrix(1 0 0 1 -419.3091 23.0203)" style="font-family:'Chillax-Medium'; font-size:103.2423px; letter-spacing:18;">nectr</text>
<path d="M31.32-375.74h-220.49c-9.15,0-16.57-7.42-16.57-16.57v-9.54c0-9.15,7.42-16.57,16.57-16.57H31.32
	c9.15,0,16.57,7.42,16.57,16.57v9.54C47.89-383.16,40.48-375.74,31.32-375.74z"/>
<g>
	<g>
		<path class="st3" d="M-126.74-385.89c0.25,0.97,0.95,1.55,2.14,1.55c1.32,0,1.84-0.59,1.84-1.41c0-0.84-0.38-1.25-2.06-1.65
			c-2.18-0.53-2.67-1.19-2.67-2.26c0-1.12,0.84-2.19,2.77-2.19c1.93,0,2.79,1.15,2.91,2.28h-1.05c-0.13-0.6-0.6-1.39-1.91-1.39
			c-1.27,0-1.65,0.62-1.65,1.21c0,0.68,0.36,1.01,1.9,1.38c2.34,0.56,2.87,1.33,2.87,2.54c0,1.44-1.16,2.4-2.99,2.4
			c-1.95,0-2.97-1-3.19-2.45H-126.74z"/>
		<path class="st3" d="M-112.74-385.26c0,0.72,0.06,1.39,0.11,1.63h-1.03c-0.06-0.19-0.11-0.55-0.14-1.15
			c-0.28,0.57-0.95,1.34-2.57,1.34c-1.88,0-2.69-1.22-2.69-2.43c0-1.78,1.39-2.59,3.79-2.59c0.62,0,1.14,0,1.46,0v-0.76
			c0-0.76-0.23-1.74-1.92-1.74c-1.5,0-1.73,0.77-1.89,1.41h-1.05c0.1-0.99,0.71-2.31,2.97-2.31c1.89,0,2.95,0.79,2.95,2.58V-385.26z
			 M-113.79-387.65c-0.28,0-0.96,0-1.45,0c-1.7,0-2.7,0.46-2.7,1.72c0,0.93,0.65,1.59,1.72,1.59c2.13,0,2.43-1.43,2.43-3.04V-387.65
			z"/>
		<path class="st3" d="M-108.71-383.63v-7.11h-1.34v-0.93h1.34v-1.06c0-1.41,0.47-2.81,2.26-2.81c0.27,0,0.64,0.04,0.83,0.11v0.96
			c-0.22-0.06-0.56-0.09-0.79-0.09c-0.89,0-1.23,0.59-1.23,1.89v1h1.69v0.93h-1.69v7.11H-108.71z"/>
		<path class="st3" d="M-102.95-387.48c0.01,1.87,0.96,3.1,2.42,3.1c1.4,0,1.87-0.76,2.14-1.39h1.08c-0.33,1.05-1.18,2.33-3.27,2.33
			c-2.48,0-3.47-2.08-3.47-4.14c0-2.34,1.17-4.29,3.56-4.29c2.53,0,3.35,2.11,3.35,3.72c0,0.23,0,0.45-0.02,0.66H-102.95z
			 M-98.22-388.32c-0.02-1.47-0.79-2.64-2.28-2.64c-1.55,0-2.24,1.08-2.4,2.64H-98.22z"/>
		<path class="st3" d="M-78.97-390.76l-2.81,4.25c-1.34,2.03-2.3,3.04-4.21,3.04c-1.94,0-3.01-1.47-3.01-2.88
			c0-1.4,0.71-2.42,3-3.64c1.54-0.93,2.23-1.41,2.23-2.44c0-0.83-0.52-1.62-1.52-1.62c-0.94,0-1.59,0.59-1.59,1.68
			c0,0.71,0.51,1.35,1.4,2.21l6.65,6.54h-1.52l-6-5.92c-0.97-0.93-1.58-1.68-1.58-2.8c0-1.34,0.92-2.6,2.66-2.6
			c1.53,0,2.54,1.12,2.54,2.5c0,1.15-0.68,1.88-2.66,3.05c-2.1,1.15-2.49,1.93-2.49,2.94c0,1.07,0.9,2,1.93,2
			c1.27,0,2.06-0.47,3.48-2.69l2.3-3.61H-78.97z"/>
		<path class="st3" d="M-64.13-386.04c-0.37,1.4-1.3,2.6-3.21,2.6c-2.1,0-3.51-1.54-3.51-4.17c0-2.24,1.23-4.25,3.6-4.25
			c2.17,0,2.99,1.54,3.11,2.62h-1.07c-0.22-0.88-0.79-1.68-2.06-1.68c-1.58,0-2.47,1.34-2.47,3.27c0,1.88,0.85,3.28,2.4,3.28
			c1.1,0,1.75-0.57,2.13-1.66H-64.13z"/>
		<path class="st3" d="M-54.37-387.67c0,2.27-1.28,4.23-3.7,4.23c-2.23,0-3.6-1.78-3.6-4.21c0-2.33,1.31-4.22,3.69-4.22
			C-55.81-391.86-54.37-390.19-54.37-387.67z M-60.56-387.65c0,1.84,0.96,3.27,2.55,3.27c1.62,0,2.53-1.33,2.53-3.27
			c0-1.86-0.9-3.27-2.56-3.27C-59.73-390.92-60.56-389.54-60.56-387.65z"/>
		<path class="st3" d="M-51.19-389.65c0-0.7,0-1.39-0.02-2.03h1.04c0.03,0.25,0.05,1.2,0.04,1.43c0.34-0.76,1-1.62,2.61-1.62
			c1.47,0,2.69,0.86,2.69,3.04v5.19h-1.07v-5.04c0-1.33-0.54-2.21-1.86-2.21c-1.73,0-2.37,1.39-2.37,3.08v4.17h-1.07V-389.65z"/>
		<path class="st3" d="M-41.03-389.65c0-0.7,0-1.39-0.02-2.03H-40c0.03,0.25,0.05,1.2,0.04,1.43c0.34-0.76,1-1.62,2.61-1.62
			c1.47,0,2.69,0.86,2.69,3.04v5.19h-1.07v-5.04c0-1.33-0.54-2.21-1.86-2.21c-1.73,0-2.37,1.39-2.37,3.08v4.17h-1.07V-389.65z"/>
		<path class="st3" d="M-30.39-387.48c0.01,1.87,0.96,3.1,2.42,3.1c1.4,0,1.87-0.76,2.14-1.39h1.08c-0.33,1.05-1.18,2.33-3.26,2.33
			c-2.48,0-3.47-2.08-3.47-4.14c0-2.34,1.17-4.29,3.56-4.29c2.53,0,3.35,2.11,3.35,3.72c0,0.23,0,0.45-0.02,0.66H-30.39z
			 M-25.67-388.32c-0.02-1.47-0.79-2.64-2.28-2.64c-1.55,0-2.24,1.08-2.4,2.64H-25.67z"/>
		<path class="st3" d="M-15.3-386.04c-0.37,1.4-1.3,2.6-3.21,2.6c-2.1,0-3.51-1.54-3.51-4.17c0-2.24,1.22-4.25,3.6-4.25
			c2.17,0,2.99,1.54,3.11,2.62h-1.07c-0.22-0.88-0.79-1.68-2.06-1.68c-1.58,0-2.47,1.34-2.47,3.27c0,1.88,0.85,3.28,2.4,3.28
			c1.1,0,1.75-0.57,2.13-1.66H-15.3z"/>
		<path class="st3" d="M-13.37-391.67h1.45v-2.45h1.07v2.45H-9v0.93h-1.85v4.99c0,0.85,0.19,1.31,0.94,1.31
			c0.22,0,0.53-0.01,0.77-0.08v0.86c-0.3,0.12-0.73,0.15-1.09,0.15c-1.13,0-1.7-0.58-1.7-1.88v-5.34h-1.45V-391.67z"/>
		<path class="st3" d="M-5.66-387.48c0.01,1.87,0.96,3.1,2.42,3.1c1.4,0,1.87-0.76,2.14-1.39h1.08c-0.33,1.05-1.18,2.33-3.26,2.33
			c-2.48,0-3.47-2.08-3.47-4.14c0-2.34,1.17-4.29,3.56-4.29c2.53,0,3.34,2.11,3.34,3.72c0,0.23,0,0.45-0.02,0.66H-5.66z
			 M-0.94-388.32c-0.02-1.47-0.79-2.64-2.28-2.64c-1.55,0-2.24,1.08-2.4,2.64H-0.94z"/>
		<path class="st3" d="M9.75-395.39v9.46c0,0.76,0,1.5,0.02,2.3H8.73c-0.03-0.2-0.06-0.89-0.06-1.25c-0.4,0.92-1.26,1.45-2.62,1.45
			c-2.08,0-3.34-1.69-3.34-4.12c0-2.48,1.37-4.3,3.57-4.3c1.52,0,2.16,0.64,2.39,1.12v-4.65H9.75z M3.83-387.6
			c0,2.08,1.04,3.21,2.37,3.21c2.01,0,2.51-1.43,2.51-3.42c0-1.94-0.44-3.11-2.39-3.11C4.82-390.92,3.83-389.71,3.83-387.6z"/>
	</g>
</g>
<path class="st3" d="M-342.73,118.13c0.01,1.11-0.36,2.08-1.01,2.95c-0.52,0.69-1.18,1.21-1.97,1.57c-0.06,0.03-0.12,0.15-0.12,0.23
	c0.01,1.77,0.02,3.53,0.03,5.3c0,0.42-0.06,0.83-0.36,1.16c-0.3,0.33-0.63,0.59-1.11,0.62c-0.43,0.03-0.84,0.09-1.26-0.06
	c-0.6-0.21-1.12-0.76-1.12-1.47c-0.01-1.55,0-3.1-0.01-4.65c0-0.3-0.01-0.59-0.04-0.89c-0.01-0.07-0.08-0.17-0.15-0.2
	c-1.03-0.4-1.82-1.09-2.38-2.03c-0.25-0.42-0.42-0.9-0.61-1.36c-0.03-0.07,0-0.16-0.01-0.23c-0.12-0.59-0.1-1.19-0.04-1.78
	c0.08-0.72,0.37-1.37,0.78-1.96c0.47-0.69,1.08-1.26,1.83-1.64c0.48-0.24,0.97-0.44,1.53-0.49c0.75-0.07,1.5-0.08,2.23,0.08
	c0.54,0.12,1.07,0.4,1.55,0.69c1.1,0.69,1.79,1.71,2.11,2.96C-342.77,117.32-342.77,117.73-342.73,118.13z"/>
<path d="M-445.03-271.88v16.98h-7.09v-17.7c0-10.25,6.09-18.27,17.41-18.27c11.47,0,17.7,8.03,17.7,18.2v17.77h-7.09v-16.91
	c0-6.59-3.58-12.25-10.61-12.25C-441.59-284.07-445.03-278.41-445.03-271.88z"/>
<path d="M-413.64-273c0-10.1,7.24-18.34,17.77-18.34c10.6,0,17.2,7.67,17.2,17.48v2.87h-28.09c0.79,6.02,5.37,10.25,11.68,10.25
	c4.3,0,8.17-1.86,10.25-5.73l5.45,2.79c-3.08,6.02-8.74,9.24-15.62,9.24C-405.69-254.44-413.64-262.17-413.64-273z M-385.77-275.57
	c-0.29-5.59-4.37-9.39-10.18-9.39c-5.95,0-9.82,4.16-10.53,9.39H-385.77z"/>
<path d="M-412.64-231.51c0-10.1,8.24-18.42,18.34-18.34c6.45,0,12.4,2.94,15.62,9.24l-5.88,3.3c-2.08-3.8-5.59-5.8-9.74-5.8
	c-6.16,0-11.25,5.23-11.25,11.61c0,6.45,5.09,11.75,11.25,11.75c4.16,0,7.67-2.01,9.74-5.8l5.88,3.22
	c-3.22,6.38-9.17,9.24-15.62,9.24C-404.4-212.95-412.64-221.33-412.64-231.51z"/>
<path d="M-368.36-266.55v-16.34h-6.95v-6.16h6.95v-9.1h7.09v9.1h13.47v6.16h-13.47v16.12c0,4.59,2.72,7.31,6.95,7.31
	c2.29,0,4.8-0.86,6.52-2.08v6.52c-1.79,1.22-4.59,2.01-7.17,2.01C-363.7-253-368.36-258.52-368.36-266.55z"/>
<path d="M-371.72-213.55v-20.92c0-8.53,4.87-14.9,14.04-14.9c2.22,0,4.51,0.43,6.31,1.29v7.02c-1.72-1-3.73-1.5-5.66-1.5
	c-4.73,0-7.6,3.22-7.6,8.38v20.64H-371.72z"/>
<path d="M-427.01-218.3h-15.11c-7.38,0-13.37-5.99-13.37-13.37v-5.96c0-7.38,5.99-13.37,13.37-13.37h15.11
	c7.38,0,13.37,5.99,13.37,13.37v5.96C-413.64-224.28-419.63-218.3-427.01-218.3z"/>
<path class="st4" d="M-430.65-237.28c0.01,0.85-0.27,1.6-0.77,2.26c-0.4,0.53-0.91,0.93-1.51,1.2c-0.05,0.02-0.09,0.12-0.09,0.18
	c0,1.35,0.02,2.71,0.02,4.06c0,0.32-0.05,0.64-0.28,0.89c-0.23,0.25-0.48,0.45-0.85,0.48c-0.33,0.02-0.65,0.07-0.96-0.04
	c-0.46-0.16-0.86-0.58-0.86-1.13c0-1.19,0-2.37-0.01-3.56c0-0.23-0.01-0.46-0.03-0.68c-0.01-0.06-0.06-0.13-0.11-0.15
	c-0.79-0.31-1.39-0.83-1.82-1.55c-0.19-0.33-0.32-0.69-0.47-1.04c-0.02-0.05,0-0.12-0.01-0.18c-0.09-0.45-0.08-0.91-0.03-1.37
	c0.06-0.55,0.29-1.05,0.6-1.5c0.36-0.53,0.83-0.97,1.4-1.26c0.36-0.19,0.75-0.34,1.17-0.38c0.58-0.05,1.15-0.06,1.71,0.06
	c0.41,0.09,0.82,0.3,1.18,0.53c0.85,0.53,1.37,1.31,1.62,2.27C-430.69-237.9-430.69-237.59-430.65-237.28z"/>
<path d="M640.03-350.16c0.51-0.43,25.14,20.63,27.74,22.5c10.51,7.55,21.99,11.13,33.35,16.84c16.06,8.07,26.8,11.58,44.65,5.41
	c25.18-8.7,48.21-23.57,66.5-42.94c-0.83-3.11-4.68-4.56-7.83-3.87c-3.14,0.69-5.7,2.89-8.1,5.02
	c-13.58,12.01-24.86,22.38-42.29,28.19c-7.51,2.75-16.84,8.49-24.85,8.41c-3.07-0.03-6.03-1.1-8.89-2.21
	c-15.87-6.15-31.1-13.95-45.39-23.2c-7.14-4.63-14.06-9.61-20.69-14.95C647.13-356.69,646.64-355.74,640.03-350.16z"/>
<path d="M318.53-444.97c0.51-0.43,25.14,20.63,27.74,22.5c10.51,7.55,21.99,11.13,33.35,16.84c16.06,8.07,26.8,11.58,44.65,5.41
	c25.18-8.7,48.21-23.57,66.5-42.94c-0.83-3.11-4.68-4.56-7.83-3.87c-3.14,0.69-5.7,2.89-8.1,5.02
	c-13.58,12.01-24.86,22.38-42.29,28.19c-7.51,2.75-16.84,8.49-24.85,8.41c-3.07-0.03-6.03-1.1-8.89-2.21
	c-15.87-6.15-31.1-13.95-45.39-23.2c-7.14-4.63-14.06-9.61-20.69-14.95C325.62-451.51,325.13-450.55,318.53-444.97z"/>
<path class="st5" d="M-483.33-604.86v34.47h-9.84v-35.5c0-14.76,30.77-28.33,87.96-28.33c57.92,0,89.41,13.56,89.41,28.22v25.6
	h-9.84v-25.36c0-9.5-44.1-20.65-79.57-20.65C-439.95-626.41-483.33-614.26-483.33-604.86z"/>
<g>
	<path class="st6" d="M-532.79-533.6v24.47h-10.22v-25.5c0-14.76,8.78-26.33,25.09-26.33c16.52,0,25.5,11.56,25.5,26.22v25.6h-10.22
		v-24.36c0-9.5-5.16-17.65-15.28-17.65C-527.84-551.15-532.79-542.99-532.79-533.6z"/>
	<path class="st6" d="M-476.84-534.73c0-14.56,10.43-26.43,25.6-26.43c15.28,0,24.78,11.05,24.78,25.19v4.13h-40.47
		c1.14,8.67,7.74,14.76,16.83,14.76c6.19,0,11.77-2.68,14.76-8.26l7.85,4.03c-4.44,8.67-12.59,13.32-22.51,13.32
		C-465.38-507.99-476.84-519.14-476.84-534.73z M-436.68-538.45c-0.41-8.05-6.3-13.52-14.66-13.52c-8.57,0-14.14,5.99-15.18,13.52
		H-436.68z"/>
	<path class="st6" d="M-413.34-534.53c0-14.56,11.87-26.53,26.43-26.43c9.29,0,17.86,4.23,22.51,13.32l-8.47,4.75
		c-2.99-5.47-8.05-8.36-14.04-8.36c-8.88,0-16.21,7.54-16.21,16.72c0,9.29,7.33,16.93,16.21,16.93c5.99,0,11.05-2.89,14.04-8.36
		l8.47,4.65c-4.65,9.19-13.21,13.32-22.51,13.32C-401.47-507.79-413.34-519.87-413.34-534.53z"/>
	<path class="st6" d="M-346.13-527.3v-23.54h-10.01v-8.88h10.01v-13.11h10.22v13.11h19.41v8.88h-19.41v23.23
		c0,6.61,3.92,10.53,10.01,10.53c3.3,0,6.92-1.24,9.39-2.99v9.39c-2.58,1.76-6.61,2.89-10.32,2.89
		C-339.42-507.79-346.13-515.74-346.13-527.3z"/>
	<path class="st6" d="M-299.26-509.13v-30.15c0-12.29,7.02-21.47,20.24-21.47c3.2,0,6.5,0.62,9.08,1.86v10.12
		c-2.48-1.45-5.37-2.17-8.16-2.17c-6.81,0-10.94,4.65-10.94,12.08v29.73H-299.26z"/>
</g>
<path class="st5" d="M-328.1-491.52c-54.23,42.74-76.29,41.98-78.46,41.78h-0.03c-2.02,0.19-21.25,0.86-67.56-33.45l8.13-5.43
	c14.09,9.71,35.33,22.38,59.45,30.25c28.89-6.62,57.01-27.08,69.96-37.54L-328.1-491.52z"/>
<path class="st5" d="M-529-183.97c-4.12-3.94-10.81-7.54-19.96-10.49c-15.06-4.88-36.76-8-64.56-8c-25.41,0-45.6,2.68-60.2,6.95
	c-10.66,3.13-18.33,7.09-22.87,11.48c-3.24,3.13-4.89,6.48-4.89,9.9v35.5h9.84v-34.47c0-3.8,7.13-8.06,17.92-11.8
	c15.83-5.45,39.54-9.75,60.2-9.75c22.55,0,48.59,4.51,64.56,10.24c9.16,3.27,15.02,6.96,15.02,10.42v25.36h9.83v-25.6
	C-524.11-177.58-525.76-180.88-529-183.97z"/>
<path class="st5" d="M-539.77-59.76c-54.23,42.74-76.29,41.98-78.46,41.78h-0.03c-2.02,0.19-21.25,0.86-67.56-33.45l8.13-5.43
	c14.09,9.71,35.33,22.38,59.45,30.25c28.89-6.62,57.01-27.08,69.96-37.54L-539.77-59.76z"/>
<path class="st5" d="M-539.77-583.78C-594-541.04-616.06-541.8-618.23-542h-0.03c-2.02,0.19-21.25,0.86-67.56-33.45l8.13-5.43
	c14.09,9.71,35.33,22.38,59.45,30.25c28.89-6.62,57.01-27.08,69.96-37.54L-539.77-583.78z"/>
<path class="st5" d="M-538.31,134.39c-3.39,2.67-6.66,5.18-9.8,7.51c-34.6,25.81-54.31,32.3-63.15,33.85
	c-3.2,0.55-4.97,0.47-5.51,0.42h-0.04c-0.54,0.05-2.3,0.14-5.48-0.42c-8.12-1.42-25.47-7.02-55.18-28.04
	c-2.23-1.57-4.53-3.23-6.9-4.99l6.9-4.61l1.23-0.82c14.1,9.71,35.34,22.38,59.46,30.25c27.97-6.41,55.21-25.79,68.67-36.51
	c0.45-0.35,0.88-0.7,1.29-1.03L-538.31,134.39z"/>
<path d="M883.51-189.23c-59.7,48.83-83.68,48.01-85.95,47.8h-0.03c-2.27,0.21-26.25,1.03-85.95-47.8c0,0,5.87-2.69,8.56-4.67
	c0,0,34.03,29.69,77.41,43.84c39.42-9.03,77.4-43.84,77.4-43.84C877.95-191.75,883.51-189.23,883.51-189.23z"/>
<polygon class="st3" points="845.64,-198.88 904.27,-168.64 943.56,-194.89 "/>
<polygon class="st3" points="662.01,-198.88 720.64,-168.64 759.92,-194.89 "/>
<rect x="-795.42" y="477.02" class="st9" width="959.25" height="749.7"/>
<text transform="matrix(1 0 0 1 -795.4189 550.8386)"><tspan x="0" y="0" style="font-family:'Chillax-Medium'; font-size:103.2423px;">ffd60a</tspan><tspan x="0" y="123.89" style="font-family:'Chillax-Medium'; font-size:103.2423px;">001d3d</tspan><tspan x="0" y="247.78" style="font-family:'Chillax-Medium'; font-size:103.2423px;">e5e5e5</tspan></text>
<rect x="-924.37" y="-110.2" class="st5" width="133.22" height="133.22"/>
<rect x="-924.37" y="-321.05" class="st7" width="133.22" height="133.22"/>
<rect x="-924.37" y="63.39" class="st6" width="133.22" height="133.22"/>
<path class="st8" d="M-548.96-194.46v172.42h-124.76v-173.47c14.6-4.27,34.79-6.95,60.2-6.95
	C-585.72-202.46-564.02-199.34-548.96-194.46z"/>
<path class="st5" d="M916.17,27.48v34.47h-9.84v-35.5c0-14.76,30.77-28.33,87.96-28.33c57.92,0,89.41,13.56,89.41,28.22v25.6h-9.84
	V26.59c0-9.5-44.1-20.65-79.57-20.65C959.54,5.93,916.17,18.09,916.17,27.48z"/>
<path class="st5" d="M1071.39,140.82c-54.23,42.74-76.29,41.98-78.46,41.78h-0.03c-2.02,0.19-21.25,0.86-67.56-33.45l8.13-5.43
	c14.09,9.71,35.33,22.38,59.45,30.25c28.89-6.62,57.01-27.08,69.96-37.54L1071.39,140.82z"/>
<path class="st5" d="M355.85-701.61v34.47h-9.84v-35.5c0-14.76,30.77-28.33,87.96-28.33c57.92,0,89.41,13.56,89.41,28.22v25.6h-9.84
	v-25.36c0-9.5-44.1-20.65-79.57-20.65C399.23-723.16,355.85-711,355.85-701.61z"/>
<path class="st5" d="M703.51-726.57c-54.23,42.74-76.29,41.98-78.46,41.78h-0.03c-2.02,0.19-21.25,0.86-67.56-33.45l8.13-5.43
	c14.09,9.71,35.33,22.38,59.45,30.25c28.89-6.62,57.01-27.08,69.96-37.54L703.51-726.57z"/>
<g>
	<path class="st6" d="M854.35,98.23c0-14.56,11.87-26.53,26.43-26.43c9.29,0,17.86,4.23,22.51,13.32l-8.47,4.75
		c-2.99-5.47-8.05-8.36-14.04-8.36c-8.88,0-16.21,7.54-16.21,16.72c0,9.29,7.33,16.93,16.21,16.93c5.99,0,11.05-2.89,14.04-8.36
		l8.47,4.65c-4.65,9.19-13.21,13.32-22.51,13.32C866.22,124.97,854.35,112.89,854.35,98.23z"/>
	<path class="st6" d="M930.13,99.16v24.47h-10.22v-25.5c0-14.76,8.78-26.33,25.09-26.33c16.52,0,25.5,11.56,25.5,26.22v25.6h-10.22
		V99.26c0-9.5-5.16-17.65-15.28-17.65C935.08,81.61,930.13,89.76,930.13,99.16z"/>
	<path class="st6" d="M988.15,98.23c0-14.56,11.87-26.53,26.43-26.43c9.29,0,17.86,4.23,22.51,13.32l-8.46,4.75
		c-2.99-5.47-8.05-8.36-14.04-8.36c-8.88,0-16.21,7.54-16.21,16.72c0,9.29,7.33,16.93,16.21,16.93c5.99,0,11.05-2.89,14.04-8.36
		l8.46,4.65c-4.65,9.19-13.21,13.32-22.51,13.32C1000.02,124.97,988.15,112.89,988.15,98.23z"/>
	<path class="st6" d="M1057.42,105.46V81.92h-10.01v-8.88h10.01V59.93h10.22v13.11h19.41v8.88h-19.41v23.23
		c0,6.61,3.92,10.53,10.01,10.53c3.3,0,6.92-1.24,9.39-2.99v9.39c-2.58,1.75-6.61,2.89-10.32,2.89
		C1064.13,124.97,1057.42,117.02,1057.42,105.46z"/>
	<path class="st6" d="M1106.36,123.63V93.48c0-12.29,7.02-21.47,20.24-21.47c3.2,0,6.5,0.62,9.08,1.86v10.12
		c-2.48-1.45-5.37-2.17-8.16-2.17c-6.81,0-10.94,4.65-10.94,12.08v29.73H1106.36z"/>
</g>
<text transform="matrix(1 0 0 1 753.6855 295.5544)" style="font-family:'Chillax-Medium'; font-size:35.6435px; letter-spacing:2;">CONNECTED</text>
<g>
	<path class="st7" d="M33.54,67.23c-7.18,0-13.11-6.15-13.11-13.67c0-7.42,5.92-13.53,13.11-13.53c4.84,0,8.92,2.34,11.35,6.76
		l6.83-3.84C47.98,35.61,41.05,32.2,33.54,32.2C21.77,32.13,12.2,41.79,12.2,53.56c0,11.84,9.57,21.6,21.34,21.44
		c7.51,0,14.44-3.35,18.18-10.76l-6.83-3.74C42.45,64.91,38.38,67.23,33.54,67.23z"/>
	<path class="st7" d="M84.41,32.2c-12.26,0-21.86,9.59-21.86,21.37c0,11.84,9.52,21.51,21.86,21.51c12.26,0,21.69-9.67,21.69-21.51
		C106.11,41.89,96.77,32.2,84.41,32.2z M84.41,67.23c-7.68,0-13.6-6.15-13.6-13.6c0-7.49,5.92-13.67,13.6-13.67
		c7.61,0,13.43,6.18,13.43,13.67C97.85,61.08,92.02,67.23,84.41,67.23z"/>
	<path class="st7" d="M120.36,67.75v6.34h8.26v-6.34H120.36z M140.65,32.2c-13.2,0-20.29,9.36-20.29,21.27v5.71h8.26v-4.87
		c0-7.58,4-14.18,12.03-14.18c8.17,0,12.33,6.6,12.33,14.25v4.8h8.26V53.4C161.24,41.56,153.99,32.2,140.65,32.2z M152.98,67.75
		v6.34h8.26v-6.34H152.98z"/>
	<path class="st7" d="M178.09,67.75v6.34h8.26v-6.34H178.09z M210.71,74.09h8.24v-6.34h-8.24V74.09z M198.36,32.2
		c-13.18,0-20.27,9.36-20.27,21.27v5.71h8.26v-4.87c0-7.58,4-14.18,12.01-14.18c8.17,0,12.36,6.6,12.36,14.25v4.8h8.24V53.4
		C218.95,41.56,211.7,32.2,198.36,32.2z"/>
	<path class="st7" d="M273.92,52.39c0-11.42-7.68-20.36-20.01-20.36c-12.26,0-20.69,9.59-20.69,21.37c0,12.59,9.27,21.6,21.69,21.6
		c8,0,14.58-3.77,18.18-10.76l-6.34-3.25c-2.43,4.52-6.93,6.67-11.94,6.67c-7.35,0-12.68-4.91-13.6-11.93h32.69V52.39z
		 M241.56,50.38c0.84-6.08,5.34-10.93,12.26-10.93c6.76,0,11.51,4.42,11.84,10.93H241.56z"/>
	<path class="st7" d="M307.55,67.23c-7.18,0-13.11-6.15-13.11-13.67c0-7.42,5.92-13.53,13.11-13.53c4.82,0,8.92,2.34,11.33,6.76
		l6.86-3.84c-3.77-7.35-10.67-10.76-18.18-10.76c-11.77-0.07-21.37,9.59-21.37,21.37c0,11.84,9.59,21.6,21.37,21.44
		c7.51,0,14.42-3.35,18.18-10.76l-6.86-3.74C316.47,64.91,312.37,67.23,307.55,67.23z"/>
	<path class="st7" d="M366.1,40.39V33.2h-15.68V22.6h-8.26v10.6h-8.1v7.18h8.1v19c0,9.36,5.43,15.77,15.59,15.77
		c3.02,0,6.27-0.91,8.35-2.34v-7.58c-2.01,1.4-4.91,2.41-7.58,2.41c-4.94,0-8.1-3.16-8.1-8.49V40.39H366.1z"/>
	<path class="st7" d="M418.99,52.39c0-11.42-7.68-20.36-20.03-20.36c-12.26,0-20.69,9.59-20.69,21.37c0,12.59,9.27,21.6,21.69,21.6
		c8,0,14.6-3.77,18.18-10.76l-6.34-3.25c-2.41,4.52-6.93,6.67-11.93,6.67c-7.32,0-12.66-4.91-13.6-11.93h32.72V52.39z M386.63,50.38
		c0.82-6.08,5.34-10.93,12.26-10.93c6.74,0,11.51,4.42,11.84,10.93H386.63z"/>
	<path class="st7" d="M466.52,14.44l-0.07,23.85c-3.35-3.65-8.35-6.08-13.85-6.08c-12.33,0-21.34,9.1-21.34,21.53
		c0,11.77,9.34,21.34,21.76,21.34c12.36,0,21.76-9.24,21.76-21.34V14.44H466.52z M453.02,67.32c-7.58,0-13.53-6.18-13.53-13.69
		c0-7.42,5.94-13.6,13.53-13.6c7.68,0,13.5,6.18,13.5,13.6C466.52,61.15,460.69,67.32,453.02,67.32z"/>
</g>
<text transform="matrix(1 0 0 1 163.8316 403.2357)" style="font-family:'Chillax-Medium'; font-size:35.6435px; letter-spacing:2;">connected</text>
<text transform="matrix(1 0 0 1 803.3369 263.0565)" style="font-family:'Chillax-Medium'; font-size:35.6435px; letter-spacing:2;">SAFE &amp;</text>
<text transform="matrix(1 0 0 1 -621.4734 -793.4894)" style="font-family:'Chillax-Medium'; font-size:103.2423px;">faf089</text>
<rect x="444.04" y="-807.76" class="st3" width="35.02" height="5.87"/>
<path d="M213.53,474.77c0-8.4,6.85-15.31,15.25-15.25c5.36,0,10.31,2.44,12.99,7.69l-4.89,2.74c-1.73-3.16-4.65-4.83-8.1-4.83
	c-5.12,0-9.35,4.35-9.35,9.65c0,5.36,4.23,9.77,9.35,9.77c3.46,0,6.38-1.67,8.1-4.83l4.89,2.68c-2.68,5.3-7.63,7.69-12.99,7.69
	C220.38,490.2,213.53,483.23,213.53,474.77z"/>
<path d="M249.51,474.77c0-8.4,6.85-15.25,15.61-15.25c8.82,0,15.49,6.91,15.49,15.25c0,8.46-6.73,15.37-15.49,15.37
	C256.31,490.14,249.51,483.23,249.51,474.77z M274.72,474.83c0-5.36-4.17-9.77-9.59-9.77c-5.48,0-9.71,4.41-9.71,9.77
	c0,5.3,4.23,9.71,9.71,9.71C270.55,484.54,274.72,480.13,274.72,474.83z"/>
<path d="M296.7,475.3v14.12h-5.9v-14.72c0-8.52,5.06-15.19,14.48-15.19c9.53,0,14.72,6.67,14.72,15.13v14.78h-5.9v-14.06
	c0-5.48-2.98-10.19-8.82-10.19C299.56,465.17,296.7,469.88,296.7,475.3z"/>
<path d="M330.19,474.65c0-8.4,6.02-15.25,14.78-15.25c8.82,0,14.3,6.38,14.3,14.54v2.38h-23.36c0.66,5.01,4.47,8.52,9.71,8.52
	c3.58,0,6.79-1.55,8.52-4.77l4.53,2.32c-2.56,5-7.27,7.69-12.99,7.69C336.8,490.08,330.19,483.64,330.19,474.65z M353.37,472.5
	c-0.24-4.65-3.63-7.81-8.46-7.81c-4.95,0-8.16,3.46-8.76,7.81H353.37z"/>
<path d="M368.02,474.77c0-8.4,6.85-15.31,15.25-15.25c5.36,0,10.31,2.44,12.99,7.69l-4.89,2.74c-1.73-3.16-4.65-4.83-8.1-4.83
	c-5.12,0-9.36,4.35-9.36,9.65c0,5.36,4.23,9.77,9.36,9.77c3.46,0,6.38-1.67,8.1-4.83l4.89,2.68c-2.68,5.3-7.63,7.69-12.99,7.69
	C374.87,490.2,368.02,483.23,368.02,474.77z"/>
<path d="M408,478.94v-13.59h-5.78v-5.12H408v-7.57h5.9v7.57h11.2v5.12h-11.2v13.41c0,3.81,2.26,6.08,5.78,6.08
	c1.91,0,3.99-0.72,5.42-1.73v5.42c-1.49,1.01-3.81,1.67-5.96,1.67C411.87,490.2,408,485.61,408,478.94z"/>
<path d="M436.24,489.42v-17.4c0-7.09,4.05-12.39,11.68-12.39c1.85,0,3.75,0.36,5.24,1.07v5.84c-1.43-0.83-3.1-1.25-4.71-1.25
	c-3.93,0-6.32,2.68-6.32,6.97v17.16H436.24z"/>
<rect x="288.37" y="478.54" class="st3" width="35.02" height="5.87"/>
<path d="M404.85-779.36v-5.01h-5.9v5.01H404.85z"/>
<rect x="742.97" y="-629.11" transform="matrix(-1.836970e-16 1 -1 -1.836970e-16 140.6619 -1393.0004)" class="st3" width="47.72" height="5.87"/>
<rect x="435.75" y="-784.37" width="5.9" height="5.01"/>
<rect x="448.15" y="483.52" width="5.01" height="5.9"/>
<rect x="479.14" y="-784.37" width="5.9" height="5.01"/>
<rect x="517.48" y="-784.37" width="5.9" height="5.01"/>
<rect x="553.02" y="-784.37" width="5.9" height="5.01"/>
<rect x="265.07" y="-160.63" class="st9" width="503.1" height="89.6"/>
</svg>
