<?xml version="1.0" encoding="utf-8"?>
<!-- Generator: Adobe Illustrator 27.7.0, SVG Export Plug-In . SVG Version: 6.00 Build 0)  -->
<svg version="1.1" id="Layer_1" xmlns="http://www.w3.org/2000/svg" xmlns:xlink="http://www.w3.org/1999/xlink" x="0px" y="0px"
	 viewBox="0 0 194.01 601.76" style="enable-background:new 0 0 194.01 601.76;" xml:space="preserve">
<style type="text/css">
	.st0{opacity:0.37;fill:url(#SVGID_1_);}
	.st1{opacity:0.37;fill:url(#SVGID_00000137098277636891780870000008854486892568938118_);}
</style>
<linearGradient id="SVGID_1_" gradientUnits="userSpaceOnUse" x1="553.0447" y1="637.8964" x2="-28.5573" y2="468.1224">
	<stop  offset="0" style="stop-color:#FFFFFF;stop-opacity:0.5"/>
	<stop  offset="0.5028" style="stop-color:#FFFFFF;stop-opacity:0"/>
	<stop  offset="1" style="stop-color:#FFFFFF;stop-opacity:0.4"/>
</linearGradient>
<path class="st0" d="M61.39,649.87c-0.07-4.79-0.14-9.58-0.21-14.38c-0.21-14.67-0.02-29.34,0.77-43.99
	c0.83-15.27,0.46-30.52-0.01-45.78c-0.31-10.2,0.01-20.38,0.17-30.57c0.09-5.87,0.11-11.74-0.52-17.6
	c-0.26-2.44-0.76-4.74-2.07-6.92c-2.36-3.92-3.52-8.39-5.42-12.53c-1.46-3.16-3.08-6.23-4.52-9.4c-3.39-7.44-6.07-15.12-8.24-22.98
	c-1.6-5.78-2.9-11.63-4.01-17.51c-0.91-4.84-2.77-9.34-4.86-13.74c-1.98-4.19-3.57-8.44-3.86-13.12c-0.15-2.5-0.66-4.93-1.58-7.33
	c-1.56-4.1-1.36-8.39-0.68-12.67c0.19-1.22,0.48-2.42,0.62-3.66c0.21-1.92,2.15-3.18,4.37-3.03c3.17,0.22,5.14,1.9,6.17,4.84
	c0.91,2.58,1.53,5.24,1.77,7.94c0.39,4.5,1.74,8.63,3.87,12.6c2.37,4.41,3.98,9.15,5.53,13.9c0.31,0.96,1.34,1.48,2.24,1.1
	c0.64-0.27,0.13-0.72,0.04-0.99c-1.34-4.01-2.69-8.03-4.11-12.01c-2.47-6.91-4.06-14.03-5.06-21.29c-0.26-1.91-0.21-3.83,0.01-5.74
	c0.2-1.69,0.01-3.31-0.51-4.95c-1.49-4.67-1.77-9.48-1.47-14.34c0.12-1.93,0.66-3.78,1.91-5.34c2.39-2.99,6.63-2.99,9.01,0
	c2.19,2.75,3.07,6.02,3.74,9.36c0.74,3.69,1.01,7.43,1.3,11.18c0.34,4.39,1.83,8.55,2.88,12.81c1.39,5.63,3.58,11,4.82,16.66
	c0.29,1.31,1.15,2.05,2.26,2.6c0.91,0.45,1.5-0.33,2.16-0.67c0.54-0.27,0.01-0.79-0.1-1.16c-1.27-4.26-1.78-8.68-2.54-13.04
	c-0.6-3.38-1.29-6.75-1.75-10.15c-0.47-3.57-0.52-7.18-0.47-10.77c0.06-4.72-0.66-9.28-1.98-13.8c-1.18-4.04-1.85-8.19-1.27-12.43
	c0.08-0.59,0.2-1.19,0.37-1.76c1.01-3.35,3.3-4.52,6.73-3.82c4.99,1.03,6.97,4.66,8.21,9.01c0.85,3.01,1.41,6.09,1.59,9.2
	c0.19,3.26,0.94,6.35,1.98,9.44c1.67,4.96,3.1,10.01,3.74,15.22c0.79,6.45,1.99,12.85,2.65,19.32c0.09,0.86,0.4,1.71,0.64,2.55
	c0.14,0.51,0.48,0.73,1.04,0.8c2.28,0.29,2.25,0.32,1.86-1.93c-1.12-6.49-2.56-12.98-2.31-19.6c0.16-4.18-0.49-8.28-0.45-12.43
	c0.02-1.98-0.85-3.96-1.25-5.95c-0.77-3.74-1.17-7.5-0.62-11.31c0.32-2.18,0.56-4.52,3.09-5.2c2.68-0.71,5.26-0.19,7.33,1.84
	c1.76,1.73,2.66,3.96,3.41,6.25c0.99,3.05,1.68,6.18,2.02,9.35c0.49,4.55,1.48,8.96,2.73,13.35c2.08,7.32,3.19,14.81,4.15,22.35
	c0.88,6.96,2.84,13.67,6.4,19.82c1.66,2.88,2.89,5.97,4.03,9.09c0.52,1.42,1.65,2.21,2.68,3.13c0.23,0.21,0.5,0.21,0.79,0.16
	c1.18-0.21,2.36-0.43,3.54-0.62c1.21-0.19,2.07-0.8,2.82-1.79c2.48-3.24,4.49-6.8,7.04-9.98c0.74-0.93,0.83-2.22,1.52-3.24
	c1.9-2.78,4.34-5.01,7.05-6.94c2.91-2.07,6.04-3.68,9.48-4.8c2.65-0.86,5.04-0.47,7.42,0.64c1.08,0.51,2.1,1.15,3.11,1.79
	c1.13,0.71,1.22,1.67,0.28,2.85c-1.05,1.31-2.19,2.59-3.55,3.55c-4.12,2.93-6.49,7.02-8.25,11.63c-2.68,7.03-5.8,13.86-9.61,20.35
	c-0.94,1.61-1.51,3.32-1.52,5.23c-0.01,2.23-1.14,4.04-2.48,5.72c-2.39,2.98-5.31,5.41-8.21,7.85c-3.51,2.95-7.41,5.43-10.5,8.9
	c-3.57,4.01-5.68,8.65-6.31,13.97c-0.12,1.04-0.05,2.08,0.27,3.09c3.53,10.95,5.31,22.21,5.91,33.66
	c0.48,9.07,2.15,17.92,4.54,26.64c2.72,9.94,5.62,19.83,9.4,29.42c2.58,6.55,5.49,12.95,8.76,19.18c1.58,3.01,3.1,6.05,4.66,9.07
	c0.14,0.28,0.34,0.53,0.52,0.79c-26.72,16.34-53.44,32.67-80.15,49.03c-0.77,0.47-1.07,0.42-1.52-0.37
	C63.73,653.6,62.54,651.75,61.39,649.87z"/>
<linearGradient id="SVGID_00000020382640409432612420000016444433899387884479_" gradientUnits="userSpaceOnUse" x1="660.1476" y1="270.9891" x2="78.5457" y2="101.2152">
	<stop  offset="0" style="stop-color:#FFFFFF;stop-opacity:0.5"/>
	<stop  offset="0.5028" style="stop-color:#FFFFFF;stop-opacity:0"/>
	<stop  offset="1" style="stop-color:#FFFFFF;stop-opacity:0.4"/>
</linearGradient>
<path style="opacity:0.37;fill:url(#SVGID_00000020382640409432612420000016444433899387884479_);" d="M125.74-18.75
	c-1.3,6.22-2.32,12.49-3.41,18.75c-1.99,11.5-3.9,23.02-5.31,34.61c-1.34,10.99-2.56,22-2.73,33.08c-0.11,7.43,0.58,14.85,0.8,22.28
	c0.25,8.23,0.46,16.47-1.13,24.62c-0.18,0.92,0.1,1.72,0.35,2.56c0.85,2.82,2.8,4.86,4.7,6.98c4.53,5.06,10.08,8.84,15.73,12.45
	c3.55,2.27,6,5.33,7.81,9.01c2.42,4.92,4.36,10.04,6.43,15.11c0.31,0.75,0.75,1.41,1.16,2.09c1.76,2.95,3.5,5.89,4.57,9.21
	c1.15,3.56,3.29,6.59,5.75,9.4c1.17,1.34,1.93,2.92,2.36,4.66c0.14,0.59,0.05,1-0.43,1.47c-2.93,2.92-4.88,3.92-9.93,1.39
	c-6.12-3.07-10.78-7.72-14.34-13.69c-2.33-3.91-4.42-8.08-7.83-11.28c-0.77-0.72-1.65-1.26-2.57-1.75c-0.67-0.36-1-0.24-1.26,0.57
	c-1.33,4.15-2.37,8.41-4.32,12.32c-1.52,3.05-1.96,6.32-2.32,9.6c-0.29,2.62-0.27,5.27-0.38,7.9c-0.32,7.91-0.59,15.83-2.3,23.6
	c-1.14,5.19-2.12,10.41-2.76,15.7c-0.48,3.97-2.11,7.62-4.16,11.02c-1.36,2.26-3.54,3.24-5.78,2.73c-2.47-0.57-3.71-2.35-4.2-4.72
	c-0.67-3.24-0.17-6.44,0.32-9.65c0.07-0.43,0.12-0.88,0.25-1.29c1.56-4.78,0.98-9.74,1.28-14.63c0.12-1.84,0.31-3.67,0.8-5.45
	c0.09-0.32,0.13-0.62,0.06-0.94c-0.71-2.98-0.36-5.96-0.05-8.94c0.14-1.35,0.3-2.7,0.43-4.05c0.14-1.41-0.32-2.14-1.6-2.67
	c-1.38-0.57-3.22,0.3-3.63,1.75c-0.68,2.39-0.95,4.86-1.23,7.32c-0.33,2.86-0.64,5.72-0.83,8.59c-0.21,3.3-1.29,6.43-2.43,9.5
	c-1.88,5.05-3.12,10.22-3.99,15.53c-0.74,4.54-1.86,9-4.02,13.14c-1.32,2.54-4.39,4.4-7.33,3.77c-2.26-0.49-3.56-1.69-4.16-3.78
	c-0.73-2.54-0.35-5.06,0.17-7.59c1.38-6.77,3.47-13.39,3.97-20.33c0.2-2.75-0.05-5.51,0.3-8.26c0.57-4.41,1.47-8.75,2.62-13.04
	c0.53-1.96,0.93-3.96,1.7-5.87c0.21-0.51,0.57-1.19-0.28-1.66c-1.36-0.76-1.71-0.63-1.86,0.9c-0.57,5.84-1.98,11.5-3.89,17.03
	c-0.58,1.69-1.39,3.33-2.28,4.88c-1.64,2.9-2.21,6.08-2.61,9.29c-0.63,5.07-2.05,9.94-3.64,14.76c-0.71,2.14-2.04,3.81-4.49,4.39
	c-3.28,0.77-5.39-0.57-6.46-3.72c-0.75-2.19-0.67-4.49-0.33-6.76c0.71-4.76,2.11-9.36,3.47-13.96c1.73-5.86,2.65-11.85,3.08-17.93
	c0.18-2.48,0.7-4.81,1.93-6.98c0.82-1.44,1.39-2.94,1.34-4.65c-0.05-1.66,0.56-3.22,1.07-4.77c0.34-1.06-0.84-2.8-1.93-2.87
	c-0.57-0.04-0.6,0.45-0.77,0.77c-1.12,2.15-1.7,4.48-2.26,6.81c-0.8,3.32-1.95,6.51-3.49,9.55c-1.64,3.23-2.45,6.76-3.62,10.16
	c-0.8,2.34-1.58,4.7-2.64,6.95c-0.58,1.23-1.23,2.42-2.16,3.44c-1.26,1.39-2.7,2.55-4.69,1.9c-2.16-0.71-3.59-2.27-3.92-4.57
	c-0.35-2.42,0.25-4.79,0.95-7.08c3.46-11.32,6.27-22.82,9.12-34.3c1.18-4.77,1.16-9.68,1.72-14.52c1.51-13.15,4.42-26,8.19-38.67
	c1.12-3.76,2.31-7.49,3.72-11.15c0.26-0.68,0.32-1.38,0.42-2.1c1.04-7.58,0.03-15.05-0.96-22.55c-1.34-10.14-2.12-20.34-3.01-30.52
	c-0.54-6.13-1.92-12.15-2.95-18.21c-1.86-10.95-3.81-21.88-4.94-32.93c-0.32-3.14-0.51-6.29-0.77-9.44
	c-0.03-0.31,0.08-0.65-0.18-0.91c19.12-11.69,38.24-23.38,57.35-35.09c0.78-0.48,1.08-0.54,1.61,0.34
	C117-32.98,121.38-25.87,125.74-18.75z"/>
</svg>
